<svg id="Слой_1" xmlns="http://www.w3.org/2000/svg" viewBox="-277 408.4 40 25.5"><style>.st0{fill:#2b2a29}</style><g id="Слой_x0020_1"><path class="st0" d="M-248.9 413.4c3.2 0 6.2.9 8.3 2.5 2.1 1.6 3.6 3.9 3.6 6.6 0 1.2-.4 2.5-1.1 3.6-.5.9-1.2 1.8-2.3 2.7v5.1l-5.9-2.7c-.4 0-1.2.2-2.7.2-3.2 0-6-.9-8.2-2.5s-3.6-3.9-3.6-6.4c0-2.7 1.4-5 3.6-6.6s5.1-2.5 8.3-2.5zm7.2 3.9c-1.8-1.4-4.4-2.3-7.3-2.3-2.8 0-5.3.9-7.1 2.3-1.8 1.2-3 3-3 5.1 0 2 1.2 3.7 3 5 1.8 1.4 4.3 2.3 7.1 2.3 1.5 0 2.8-.4 2.8-.4l4.1 1.8v-3.4l.4-.2c.9-.7 1.6-1.6 2.1-2.5.5-.9.7-1.8.7-2.7.1-2-1-3.7-2.8-5z"/><path class="st0" d="M-265.3 410.1c-2.8 0-5.3.8-7.1 2.2s-2.8 3.2-2.8 5.1c0 .9.2 1.8.7 2.7.5.9 1.2 1.8 2.1 2.5l.4.2v3.6l4.1-2s1.6.4 2.7.4c2 0 3.9-.4 5.3-1.1v1.8c-1.6.7-3.4 1.1-5.3 1.1-.4 0-2.1-.2-2.5-.4l-6 2.7v-5.1c-.9-.7-1.6-1.6-2.3-2.7-.5-1.1-.9-2.3-.9-3.6 0-2.7 1.4-4.8 3.6-6.6 2.1-1.4 5-2.5 8.2-2.5 3.2 0 6.2 1.1 8.3 2.5 1.6 1.2 2.7 2.7 3.2 4.3l-1.8.1c-.5-1.1-1.4-2.1-2.5-3-1.9-1.4-4.6-2.2-7.4-2.2zm10.7 11.5c-.4 0-.5-.2-.5-.5 0-.4.2-.5.5-.5h11.2c.4 0 .7.2.7.5 0 .4-.4.5-.7.5h-11.2zm0 3.2c-.4 0-.5-.4-.5-.7 0-.2.2-.5.5-.5h11.2c.4 0 .7.4.7.5 0 .4-.4.7-.7.7h-11.2z"/></g></svg>