<svg id="Слой_1" xmlns="http://www.w3.org/2000/svg" viewBox="0 0 19.8 18.7"><style>.st0{fill-rule:evenodd;clip-rule:evenodd}</style><path class="st0" d="M14.7 3.5c.8.3 1.4.9 1.7 1.7.1.2.3.4.5.4h.2c.3-.1.4-.4.3-.7-.4-1.1-1.2-2-2.3-2.3-.3-.1-.6 0-.7.3-.2.1 0 .5.3.6z"/><path class="st0" d="M9.6 18.6c.1 0 .2.1.3.1s.2 0 .3-.1c6.3-3.4 9.6-9 9.6-12.6 0-3.3-2.7-6-6-6-2.3 0-4.5 1.4-5.5 3.5-.1.3 0 .6.3.7.3.1.6 0 .7-.3.8-1.7 2.6-2.9 4.5-2.9 2.7 0 4.9 2.2 4.9 4.9 0 3.2-3.3 8.4-8.8 11.5-5.5-3-8.8-8.1-8.8-11.4 0-2.7 2.2-4.9 4.9-4.9.7 0 1.4.1 2 .4.3.1.6 0 .7-.3.1-.3 0-.6-.3-.7C7.7.2 6.9 0 6 0 2.7 0 0 2.7 0 6c0 3.6 3.4 9.2 9.6 12.6z"/></svg>