<svg xmlns="http://www.w3.org/2000/svg" width="791.093" height="605.775" viewBox="0 0 20785 15916" shape-rendering="geometricPrecision" text-rendering="geometricPrecision" image-rendering="optimizeQuality" fill-rule="evenodd" clip-rule="evenodd"><defs><style>.str0,.str1{stroke:#5fb138;stroke-width:1033.76}.str0{stroke-linecap:round;stroke-linejoin:round}.fil0{fill:none}.fil1{fill:#5fb138}</style></defs><g id="Слой_x0020_1"><g id="_2040802827984"><path class="fil0 str0" d="M517 517h2940l3031 10840h10840l2940-7900H7590"/><path class="fil0 str1" d="M9428 14388c0-551-460-1010-1011-1010s-1010 459-1010 1010c0 552 459 1011 1010 1011s1011-459 1011-1011zm7900 0c0-551-459-1010-1010-1010-552 0-1011 459-1011 1010 0 552 459 1011 1011 1011 551-92 1010-459 1010-1011z"/></g><path class="fil1" d="M7572 10133h8789l1943-5464H6051z"/></g></svg>