<svg xmlns="http://www.w3.org/2000/svg" viewBox="160.25 359.25 93 75"><g fill="#006db5"><path d="M250.395 392.769h-47.649c-.94 0-1.702.762-1.702 1.702v8.509h-6.807v-10.211a5.092 5.092 0 0 0-.07-.74c7.136-7.48 6.858-19.329-.623-26.466-7.48-7.136-19.329-6.858-26.466.623-6.9 7.233-6.9 18.61 0 25.843a5.25 5.25 0 0 0-.07.74v1.702h-3.404c-.94 0-1.702.762-1.702 1.702v8.509c0 .94.762 1.702 1.702 1.702h3.404v22.123a5.105 5.105 0 0 0 5.105 5.105h17.018a5.105 5.105 0 0 0 5.105-5.105v-11.912h6.807v11.912c0 .94.762 1.702 1.702 1.702h47.649c.94 0 1.702-.762 1.702-1.702v-34.035a1.7 1.7 0 0 0-1.701-1.703zm-61.263 3.404h1.702v28.93h-1.702v-28.93zm-8.509-32.333c8.454-.005 15.311 6.845 15.316 15.299a15.307 15.307 0 0 1-4.812 11.151 14.796 14.796 0 0 1-3.829 2.645c-.02 0-.039.024-.06.034h-.022c-.138.073-.288.134-.437.196h-.034a15.033 15.033 0 0 1-6.121 1.307c-.971 0-1.939-.092-2.893-.274-8.307-1.593-13.751-9.618-12.158-17.926a15.313 15.313 0 0 1 15.05-12.432zm-15.316 39.14v-5.105h1.702v5.105h-1.702zm23.825 27.228h-17.018c-.94 0-1.702-.762-1.702-1.702V394.84c.024.015.049.026.073.041.607.391 1.236.746 1.884 1.064.063.031.126.056.189.085a18.168 18.168 0 0 0 11.033 1.586l.17-.027a18.287 18.287 0 0 0 1.938-.439h.026v29.655c0 .94.762 1.702 1.702 1.702h3.404a1.703 1.703 0 0 1-1.699 1.701zm5.105-17.017v-6.807h6.807v6.807h-6.807zm54.456 13.614h-44.246v-30.632h44.246v30.632z"/><path d="M180.623 392.769c7.519 0 13.614-6.095 13.614-13.614s-6.095-13.614-13.614-13.614-13.614 6.095-13.614 13.614c.008 7.516 6.098 13.606 13.614 13.614zm0-23.824c5.639 0 10.211 4.571 10.211 10.211 0 5.639-4.571 10.211-10.211 10.211s-10.211-4.571-10.211-10.211c.006-5.637 4.574-10.206 10.211-10.211z"/><path d="M175.517 379.155a5.105 5.105 0 0 1 5.105-5.105 1.702 1.702 0 1 0 0-3.404 8.52 8.52 0 0 0-8.509 8.509 1.702 1.702 0 1 0 3.404 0zm30.632 44.246c0 .94.762 1.702 1.702 1.702h37.439c.94 0 1.702-.762 1.702-1.702v-23.825c0-.94-.762-1.702-1.702-1.702h-37.439c-.94 0-1.702.762-1.702 1.702v23.825zm3.404-1.702v-.58l10.233-4.385 7.854 3.143a1.704 1.704 0 0 0 1.578-.17l9.389-6.259 4.983 2.496v5.755h-34.037zm34.035-20.421v10.861l-4.345-2.182a1.7 1.7 0 0 0-1.702.107l-9.465 6.31-7.677-3.063a1.722 1.722 0 0 0-1.304.017l-9.543 4.089v-16.139h34.036z"/><path d="M224.868 413.191a5.105 5.105 0 1 0 0-10.21 5.105 5.105 0 0 0 0 10.21zm0-6.807a1.702 1.702 0 1 1 0 3.404 1.702 1.702 0 0 1 0-3.404z"/></g></svg>