<svg xmlns="http://www.w3.org/2000/svg" viewBox="171.015 351.5 106.218 70.75"><path d="M242.257 391.232l-9.02-4.009a1.768 1.768 0 0 1-1.049-1.614v-2.477c3.03-2.414 4.978-6.132 4.978-10.298v-3.487a3.217 3.217 0 0 0 1.659-2.811v-.338c0-7.26-5.906-13.166-13.166-13.166h-3.318c-7.26 0-13.166 5.906-13.166 13.166v3.07c0 1.049.452 2 1.239 2.608.133.103.274.194.42.272v.685c0 4.166 1.947 7.884 4.977 10.298v2.477c0 .697-.412 1.331-1.049 1.614l-9.02 4.009a8.196 8.196 0 0 0-4.863 7.483v20.574a1.552 1.552 0 0 0 3.104 0v-20.573c0-.18.013-.358.031-.534l4.156 4.156a3.402 3.402 0 0 1 1.003 2.422v14.529a1.552 1.552 0 0 0 3.104 0v-14.529a6.487 6.487 0 0 0-1.912-4.617l-4.955-4.955a5.072 5.072 0 0 1 1.591-1.118l8.868-3.941 6.576 6.576v22.584a1.552 1.552 0 0 0 3.104 0v-22.584l6.576-6.576 8.868 3.941a5.072 5.072 0 0 1 1.591 1.118l-4.955 4.955a6.487 6.487 0 0 0-1.912 4.617v14.529a1.552 1.552 0 0 0 3.104 0v-14.529c0-.915.356-1.775 1.003-2.422l4.156-4.156c.019.176.031.354.031.534v20.574a1.552 1.552 0 0 0 3.104 0v-20.573a8.182 8.182 0 0 0-4.858-7.484zm-28.318-18.398v-.698c.969-.384 1.914-.995 2.819-1.83a1.552 1.552 0 0 0-2.105-2.281c-.776.717-1.552 1.18-2.305 1.376a.257.257 0 0 1-.041.008.318.318 0 0 1-.026-.14v-3.07c0-5.548 4.514-10.061 10.061-10.061h3.318c5.548 0 10.061 4.514 10.061 10.061v.338c0 .05-.03.094-.07.102-9.295 1.836-13.957-1.624-15.53-3.197a1.552 1.552 0 0 0-2.195 2.195c4.82 4.82 11.854 4.907 16.136 4.393v2.805c0 5.548-4.514 10.061-10.061 10.061-5.549-.001-10.062-4.514-10.062-10.062zM224 386c1.801 0 3.519-.364 5.084-1.022v.631c0 .894.248 1.748.687 2.486L224 393.866l-5.771-5.771a4.858 4.858 0 0 0 .687-2.486v-.632A13.07 13.07 0 0 0 224 386zm-24.993-6.53c0-4.05-2.104-7.614-5.275-9.666a6.546 6.546 0 0 0 .298-1.948c0-3.6-2.929-6.529-6.529-6.529s-6.529 2.929-6.529 6.529c0 .67.101 1.322.298 1.948-3.171 2.051-5.275 5.616-5.275 9.665v3.318c0 3.921 1.973 7.389 4.977 9.467v3.414c0 .673-.374 1.278-.976 1.58l-5.369 2.684a6.494 6.494 0 0 0-3.609 5.84v13.515a1.552 1.552 0 0 0 3.104 0v-12.844l2.529 2.529a3.402 3.402 0 0 1 1.003 2.422v7.893a1.552 1.552 0 0 0 3.104 0v-7.893a6.487 6.487 0 0 0-1.912-4.617l-3.52-3.52c-.017-.017-.035-.032-.053-.048.221-.195.469-.365.741-.501l5.369-2.684c.275-.138.531-.3.77-.481l3.795 3.795v15.948a1.552 1.552 0 0 0 3.104 0v-15.948l3.795-3.795c.239.181.495.343.77.481l1.48.74a1.555 1.555 0 0 0 2.083-.694 1.552 1.552 0 0 0-.694-2.083l-1.48-.74a1.756 1.756 0 0 1-.976-1.579v-3.414c3.004-2.078 4.977-5.546 4.977-9.467v-3.317zm-14.932-11.613a3.428 3.428 0 0 1 3.425-3.425 3.429 3.429 0 0 1 3.371 4.037 11.483 11.483 0 0 0-6.737-.002 3.436 3.436 0 0 1-.059-.61zm3.425 3.211c4.633 0 8.402 3.769 8.402 8.402v.563c-6.463 1.979-10.314-2.938-10.479-3.153a1.553 1.553 0 0 0-2.34-.166c-1.482 1.482-2.933 2.196-3.981 2.541.116-4.534 3.837-8.187 8.398-8.187zm3.587 25.847l-3.587 3.587-3.587-3.587c.105-.4.162-.818.162-1.246v-1.895c1.082.338 2.233.521 3.425.521a11.44 11.44 0 0 0 3.425-.521v1.895c0 .429.057.846.162 1.246zm-3.587-5.724c-4.633 0-8.402-3.769-8.402-8.402v-.322c1.238-.284 3.073-.945 4.988-2.485a14.022 14.022 0 0 0 2.879 2.096 12.349 12.349 0 0 0 5.932 1.531c.935 0 1.935-.109 2.993-.358-.242 4.418-3.912 7.94-8.39 7.94zm85.875 5.424l-8.687-4.344a1.756 1.756 0 0 1-.976-1.579v-2.2a9.825 9.825 0 0 0 3.318-7.363v-1.767l.107.001c.857 0 1.552-.695 1.552-1.552v-3.318c0-5.43-4.418-9.848-9.848-9.848h-3.318c-5.43 0-9.848 4.418-9.848 9.848v3.318c0 .857.695 1.552 1.552 1.552.013 0 .05 0 .107-.003v1.769a9.825 9.825 0 0 0 3.318 7.363v2.2c0 .673-.374 1.278-.976 1.579a1.552 1.552 0 1 0 1.389 2.778c.275-.138.531-.3.77-.481l3.795 3.795v20.925a1.552 1.552 0 0 0 3.104 0v-20.926l3.795-3.795c.239.181.495.343.77.481l8.406 4.203-2.55 2.55a6.487 6.487 0 0 0-1.912 4.617v12.87a1.552 1.552 0 0 0 3.104 0v-12.87c0-.915.356-1.775 1.003-2.422l2.415-2.415c.073.281.113.574.113.874v16.833a1.552 1.552 0 0 0 3.104 0v-16.833a6.49 6.49 0 0 0-3.607-5.84zm-24.596-22.122a6.75 6.75 0 0 1 6.743-6.743h3.318a6.75 6.75 0 0 1 6.743 6.743v1.724c-6.748-.364-10.82-2.99-10.859-3.016a1.55 1.55 0 0 0-1.959.194c-1.485 1.485-2.94 2.2-3.987 2.544l.001-1.446zm1.66 4.134a13.131 13.131 0 0 0 3.643-2.223c1.63.848 5.041 2.314 9.844 2.798v1.927a6.75 6.75 0 0 1-6.743 6.743 6.75 6.75 0 0 1-6.743-6.743v-2.502h-.001zm6.743 12.35a9.803 9.803 0 0 0 3.425-.615v.331c0 .428.057.845.162 1.246l-3.587 3.587-3.587-3.587c.105-.4.162-.818.162-1.246v-.331a9.803 9.803 0 0 0 3.425.615z" fill="#006db5"/></svg>