<svg xmlns="http://www.w3.org/2000/svg" viewBox="189.386 353.05 87.947 87.599"><path d="M193.772 440.866h24.857a1.462 1.462 0 1 0 0-2.924h-24.857a1.462 1.462 0 0 1-1.462-1.462v-70.186c0-.808.655-1.462 1.462-1.462h11.698a1.462 1.462 0 1 0 0-2.924h-11.698a4.387 4.387 0 0 0-4.387 4.387v70.186a4.388 4.388 0 0 0 4.387 4.385zm38.018-1.462c0 .808.655 1.462 1.462 1.462h21.933a4.387 4.387 0 0 0 4.387-4.387V417.47a1.462 1.462 0 1 0-2.924 0v19.009c0 .808-.655 1.462-1.462 1.462h-21.933c-.809 0-1.463.655-1.463 1.463zm23.395-77.497h-11.698a1.462 1.462 0 1 0 0 2.924h11.698c.808 0 1.462.655 1.462 1.462v27.782a1.462 1.462 0 1 0 2.924 0v-27.782a4.385 4.385 0 0 0-4.386-4.386z" fill="#006db5"/><path d="M205.47 367.756h-8.773c-.808 0-1.462.655-1.462 1.462v64.337c0 .808.655 1.462 1.462 1.462h24.857a1.462 1.462 0 1 0 0-2.924h-23.395V370.68h7.311a1.462 1.462 0 1 0 0-2.924zm46.791 67.261c.808 0 1.462-.655 1.462-1.462V423.32a1.462 1.462 0 1 0-2.924 0v8.773h-8.773a1.462 1.462 0 1 0 0 2.924h10.235zm-8.774-64.337h7.311v29.244a1.462 1.462 0 1 0 2.924 0v-30.706c0-.808-.655-1.462-1.462-1.462h-8.773a1.462 1.462 0 1 0 0 2.924zm-10.235-17.546h-17.546c-.808 0-1.462.655-1.462 1.462v3.713h-2.924c-.808 0-1.462.655-1.462 1.462v12.372c0 .808.655 1.462 1.462 1.462h26.32c.808 0 1.462-.655 1.462-1.462v-12.372c0-.808-.655-1.462-1.462-1.462h-2.924v-3.713a1.465 1.465 0 0 0-1.464-1.462zm2.924 8.099v9.447h-23.395v-9.447h2.924c.808 0 1.462-.655 1.462-1.462v-3.713h14.622v3.713c0 .808.655 1.462 1.462 1.462h2.925zm-16.084 15.296c-.808 0-1.462.655-1.462 1.462v5.849c0 .808.655 1.462 1.462 1.462h8.773c.808 0 1.462-.655 1.462-1.462v-5.849c0-.808-.655-1.462-1.462-1.462h-8.773zm7.311 5.849h-5.849v-2.924h5.849v2.924z" fill="#006db5"/><path d="M212.781 418.933c-.808 0-1.462.655-1.462 1.462v5.849c0 .808.655 1.462 1.462 1.462h8.773c.808 0 1.462-.655 1.462-1.462v-5.849c0-.808-.655-1.462-1.462-1.462h-8.773zm7.311 5.849h-5.849v-2.924h5.849v2.924zm8.773-17.547c.808 0 1.462-.655 1.462-1.462v-5.849c0-.808-.655-1.462-1.462-1.462h-8.773c-.808 0-1.462.655-1.462 1.462v5.849c0 .808.655 1.462 1.462 1.462h8.773zm-7.311-5.849h5.849v2.924h-5.849v-2.924zm11.698-1.462v5.849c0 .808.655 1.462 1.462 1.462h8.773c.808 0 1.462-.655 1.462-1.462v-5.849c0-.808-.655-1.462-1.462-1.462h-8.773c-.807 0-1.462.655-1.462 1.462zm2.924 1.462h5.849v2.924h-5.849v-2.924zm-32.168-1.462v5.849c0 .808.655 1.462 1.462 1.462h8.773c.808 0 1.462-.655 1.462-1.462v-5.849c0-.808-.655-1.462-1.462-1.462h-8.773c-.807 0-1.462.655-1.462 1.462zm2.924 1.462h5.849v2.924h-5.849v-2.924zm1.463-8.773v1.462a1.462 1.462 0 1 0 2.924 0h11.698a1.462 1.462 0 1 0 2.924 0h11.698a1.462 1.462 0 1 0 2.924 0v-1.462c0-.808-.655-1.462-1.462-1.462h-13.16v-1.462a1.462 1.462 0 1 0-2.924 0v1.462h-13.16c-.808 0-1.462.655-1.462 1.462zm32.168 20.471v-1.462a1.462 1.462 0 1 0-2.924 0h-20.471c-.808 0-1.462.655-1.462 1.462v1.462a1.462 1.462 0 1 0 2.924 0h20.471c.807 0 1.462-.655 1.462-1.462zM260 397.428l-27.782 27.782a1.316 1.316 0 0 0-.088.132c-.028.035-.07.054-.095.091l-8.773 13.16a1.461 1.461 0 0 0 2.028 2.028l13.16-8.773c.037-.025.056-.067.091-.095.045-.027.089-.056.132-.088l27.782-27.782a1.462 1.462 0 0 0 0-2.068l-4.387-4.387a1.462 1.462 0 0 0-2.068 0zm-30.25 36.712l3.729-5.593 1.866 1.864-5.595 3.729zm7.889-5.577l-2.319-2.319 25.714-25.714 2.319 2.319-25.714 25.714zm30.706-27.177a1.462 1.462 0 0 0 1.034-2.495l-4.387-4.387a1.463 1.463 0 0 0-2.068 2.068l4.387 4.387c.274.273.646.427 1.034.427zm-2.496-7.739l4.387 4.387a1.462 1.462 0 0 0 2.068 0l4.387-4.387a1.462 1.462 0 0 0 0-2.068l-4.387-4.387a1.462 1.462 0 0 0-2.068 0l-4.387 4.387a1.462 1.462 0 0 0 0 2.068zm5.42-3.353l2.319 2.319-2.319 2.319-2.319-2.319 2.319-2.319z" fill="#006db5"/></svg>