<svg xmlns="http://www.w3.org/2000/svg" viewBox="187.172 341 90.578 90.375"><path d="M236.389 421.833h-7.75a1.755 1.755 0 0 0 0 3.51h7.75a1.755 1.755 0 0 0 0-3.51zm14.168-64.847c.326-.326.514-.779.514-1.241s-.188-.913-.514-1.241c-.326-.326-.779-.514-1.24-.514s-.914.188-1.241.514a1.769 1.769 0 0 0-.514 1.241c0 .463.188.914.514 1.241a1.754 1.754 0 0 0 2.481 0z" fill="#006db5"/><path d="M276.427 354.18c-.009-.005-.016-.01-.026-.014l-26.322-12.704a1.75 1.75 0 0 0-1.525 0l-26.322 12.704a1.756 1.756 0 0 0 0 3.16l10.259 4.951v10.854c0 .082.007.164.018.244h-.488a5.855 5.855 0 0 0-5.848 5.848 5.855 5.855 0 0 0 5.848 5.848h.567c.533 4.974 3.243 9.306 7.155 12.023h-16.347a6.318 6.318 0 0 0-2.857.678v-25.897a2.86 2.86 0 0 1 2.857-2.857h4.533a1.755 1.755 0 0 0 0-3.51h-4.533a6.35 6.35 0 0 0-4.612 1.984 6.347 6.347 0 0 0-4.612-1.984h-24.869c-.969 0-1.755.786-1.755 1.755v38.433c0 .969.786 1.755 1.755 1.755h2.105v8.594h-2.105c-.969 0-1.755.786-1.755 1.755v3.159c0 5.612 4.566 10.178 10.178 10.178h69.49c5.612 0 10.178-4.566 10.178-10.178V417.8c0-.969-.786-1.755-1.755-1.755h-2.106v-25.796a1.755 1.755 0 0 0-3.51 0v25.796h-75.106v-8.594h53.347c.969 0 1.755-.786 1.755-1.755v-5.619c8.35-.344 15.148-6.802 16.027-15.005h.567a5.855 5.855 0 0 0 5.848-5.848 5.855 5.855 0 0 0-5.848-5.848h-.488c.011-.08.018-.161.018-.244v-10.853l7.741-3.736v8.013a1.755 1.755 0 0 0 3.51 0v-10.809a1.756 1.756 0 0 0-.967-1.567zm-2.543 66.776a6.675 6.675 0 0 1-6.668 6.668h-69.49a6.675 6.675 0 0 1-6.668-6.668v-1.404h82.827v1.404zm-24.568-75.965l18.649 9h-13.713a1.755 1.755 0 0 0 0 3.51h13.713l-18.649 9-22.285-10.755 22.285-10.755zm-19.633 34.232a2.34 2.34 0 0 1 2.338-2.338h.47v4.676h-.47a2.34 2.34 0 0 1-2.338-2.338zm-38.626-10.207h23.114a2.86 2.86 0 0 1 2.857 2.857v25.897a6.325 6.325 0 0 0-2.857-.678h-23.114v-28.076zm0 31.587h23.114a2.86 2.86 0 0 1 2.857 2.857c0 .166.025.327.068.479h-26.039v-3.336zm29.413 3.336a1.76 1.76 0 0 0 .068-.479 2.86 2.86 0 0 1 2.857-2.857h23.114v3.337l-26.039-.001zm28.846-7.358c-7.343 0-13.316-5.974-13.316-13.317v-7.444l12.61 5.548a1.756 1.756 0 0 0 1.414 0l12.61-5.548v7.444c-.001 7.343-5.975 13.317-13.318 13.317zm19.634-17.358a2.34 2.34 0 0 1-2.338 2.338h-.47v-4.676h.47a2.34 2.34 0 0 1 2.338 2.338zm-6.317-7.237l-13.316 5.859L236 371.986v-8.015l12.554 6.059a1.759 1.759 0 0 0 1.526 0l12.554-6.059v8.015h-.001z" fill="#006db5"/><path d="M275.638 372.627c-.462 0-.914.188-1.241.514s-.514.779-.514 1.241.188.914.514 1.241c.326.326.779.514 1.241.514s.914-.188 1.24-.514c.326-.326.514-.779.514-1.241s-.188-.914-.514-1.241a1.765 1.765 0 0 0-1.24-.514zM209.8 385.509c-.462 0-.914.188-1.24.514a1.758 1.758 0 0 0 1.24 2.995c.462 0 .914-.186 1.241-.514.326-.326.514-.777.514-1.24a1.77 1.77 0 0 0-.514-1.241 1.776 1.776 0 0 0-1.241-.514zm-6.635.003h-5.615a1.755 1.755 0 0 0 0 3.51h5.615a1.755 1.755 0 0 0 0-3.51zm-5.616-4.914h12.25a1.755 1.755 0 0 0 0-3.51h-12.25a1.755 1.755 0 0 0 0 3.51z" fill="#006db5"/></svg>