<svg xmlns="http://www.w3.org/2000/svg" viewBox="164.426 366.177 85.148 85.148"><path d="M197.022 379.481a1.664 1.664 0 1 0-.001-3.327 1.664 1.664 0 0 0 .001 3.327zM207 396.112c-.71 0-1.477-.447-2.159-1.258a1.663 1.663 0 0 0-2.546 2.14c.889 1.058 1.934 1.794 3.042 2.166v1.941a1.663 1.663 0 1 0 3.326 0v-1.949a4.997 4.997 0 0 0 3.326-4.703A4.995 4.995 0 0 0 207 389.46c-.917 0-1.663-.746-1.663-1.663s.746-1.663 1.663-1.663c.589 0 1.211.301 1.799.869a1.663 1.663 0 1 0 2.313-2.391c-.844-.817-1.689-1.279-2.449-1.531v-1.937a1.663 1.663 0 1 0-3.326 0v1.949a4.997 4.997 0 0 0-3.326 4.703 4.995 4.995 0 0 0 4.989 4.989c.917 0 1.663.746 1.663 1.663s-.746 1.664-1.663 1.664zm35.922-5.655a6.66 6.66 0 0 0-6.652 6.652v11.853a6.65 6.65 0 0 0-6.366 1.738l-11.153 11.153a8.254 8.254 0 0 0-2.437 5.882v9.787h-1.663c-.918 0-1.663.745-1.663 1.663v10.477c0 .919.745 1.663 1.663 1.663h23.283c.918 0 1.663-.745 1.663-1.663v-10.477c0-.919-.745-1.663-1.663-1.663h-1.663v-.785c0-.437.178-.866.488-1.176l10.381-10.381a8.263 8.263 0 0 0 2.436-5.881v-22.19a6.662 6.662 0 0 0-6.654-6.652zm-6.652 57.542h-19.957v-7.151h19.957v7.151zm9.978-28.699a4.958 4.958 0 0 1-1.462 3.529l-10.381 10.381a5.025 5.025 0 0 0-1.462 3.528v.785h-13.304v-9.787c0-1.334.519-2.587 1.462-3.529l11.154-11.154a3.322 3.322 0 0 1 4.565-.128l.029.025a3.303 3.303 0 0 1 1.083 2.454 3.3 3.3 0 0 1-.975 2.351l-8.264 8.264a1.664 1.664 0 0 0 2.352 2.352l8.263-8.263a6.606 6.606 0 0 0 1.949-4.704 6.597 6.597 0 0 0-1.663-4.397v-13.896c0-1.834 1.492-3.326 3.326-3.326s3.326 1.492 3.326 3.326V419.3zm-46.898 18.222h-1.663v-9.787a8.256 8.256 0 0 0-2.436-5.881L184.097 410.7a6.651 6.651 0 0 0-6.367-1.738v-11.853c0-3.668-2.984-6.652-6.652-6.652s-6.652 2.984-6.652 6.652v22.19c0 2.221.865 4.31 2.436 5.881l10.381 10.381c.31.31.488.738.488 1.176v.785h-1.663c-.918 0-1.663.745-1.663 1.663v10.477c0 .919.745 1.663 1.663 1.663h23.283c.918 0 1.663-.745 1.663-1.663v-10.477a1.664 1.664 0 0 0-1.664-1.663zm-19.755-4.313l-10.381-10.381a4.958 4.958 0 0 1-1.462-3.529v-22.19c0-1.834 1.492-3.326 3.326-3.326s3.326 1.492 3.326 3.326v13.896a6.596 6.596 0 0 0-1.663 4.397c0 1.777.692 3.448 1.949 4.703l8.315 8.315a1.664 1.664 0 0 0 2.352-2.352l-8.316-8.316a3.302 3.302 0 0 1-.974-2.351 3.302 3.302 0 0 1 1.084-2.454l.029-.025a3.32 3.32 0 0 1 4.565.128l11.155 11.155a4.953 4.953 0 0 1 1.461 3.528v9.787h-13.304v-.785a5.028 5.028 0 0 0-1.462-3.526zm18.092 14.79H177.73v-7.151h19.957v7.151z" fill="#006db5"/><path d="M231.281 391.253c0-13.683-11.041-24.815-24.613-24.815s-24.613 11.132-24.613 24.815c0 13.683 11.041 24.815 24.613 24.815s24.613-11.132 24.613-24.815zm-24.614 21.507c-11.762 0-21.331-9.648-21.331-21.507 0-11.859 9.569-21.507 21.331-21.507s21.331 9.648 21.331 21.507c.001 11.859-9.568 21.507-21.331 21.507z" fill="#006db5"/><path d="M218.484 376.882c-4.327-3.494-9.991-4.812-15.536-3.616a1.662 1.662 0 1 0 .701 3.251c4.558-.983 9.204.093 12.746 2.953a14.916 14.916 0 0 1 5.573 11.653c0 8.253-6.714 14.967-14.967 14.967s-14.967-6.714-14.967-14.967c0-2.465.612-4.909 1.77-7.067a1.664 1.664 0 0 0-2.931-1.573 18.335 18.335 0 0 0-2.165 8.639c0 10.087 8.207 18.294 18.294 18.294s18.294-8.207 18.294-18.294a18.23 18.23 0 0 0-6.812-14.24z" fill="#006db5"/></svg>