<svg id="Слой_1" xmlns="http://www.w3.org/2000/svg" viewBox="0 0 24.5 23.5"><style>.st0{fill:#dbdbdb}</style><path class="st0" d="M-22.3 7.1c.2.3.3.6.2.9l-1 5.5c0 .3-.2.5-.4.7-.2.2-.5.3-.8.3h-13.9l-.3 1.6h13.3c.3 0 .6.1.8.3.2.2.4.5.4.8 0 .3-.1.6-.4.8-.2.2-.5.3-.8.3h-14.7c-.4 0-.7-.1-.9-.4-.2-.3-.3-.6-.3-1l.6-3.4-1-9.6-2.5-.8c-.3-.1-.5-.3-.7-.6-.1-.3-.2-.6-.1-.9.1-.3.3-.5.6-.7.3-.1.6-.2.9-.1l3.5 1.1c.2.1.4.2.5.4.2.2.3.5.3.7l.2 1.9 15.7 1.8c.4 0 .6.2.8.4zm-15.7 12c.5 0 .9.2 1.3.5.4.4.5.8.5 1.3s-.2.9-.5 1.3c-.4.4-.8.5-1.3.5s-.9-.2-1.3-.5c-.4-.4-.5-.8-.5-1.3s.2-.9.5-1.3c.4-.4.8-.5 1.3-.5zm10.7 0c.5 0 .9.2 1.3.5.4.4.5.8.5 1.3s-.2.9-.5 1.3c-.4.4-.8.5-1.3.5s-.9-.2-1.3-.5c-.4-.4-.5-.8-.5-1.3s.2-.9.5-1.3c.4-.4.8-.5 1.3-.5zm50.7-12c.2.3.3.6.2.9l-1 5.5c0 .3-.2.5-.4.7-.2.2-.5.3-.8.3H7.6l-.3 1.6h13.3c.3 0 .6.1.8.3.2.2.4.5.4.8 0 .3-.1.6-.4.8-.2.2-.5.3-.8.3H5.9c-.4 0-.7-.1-.9-.4-.2-.3-.3-.6-.3-1l.6-3.4L4.4 4l-2.7-.8c-.3-.1-.6-.3-.7-.6-.1-.3-.2-.6-.1-.9.1-.3.3-.6.6-.7.3-.1.6-.2.9-.1L5.9 2c.2.1.4.2.5.4l.3.6.2 1.9 15.7 1.8c.3 0 .6.2.8.4zm-15.7 12c.5 0 .9.2 1.3.5.4.4.5.8.5 1.3s-.2.9-.5 1.3c-.4.4-.8.5-1.3.5s-.9-.2-1.3-.5c-.4-.4-.5-.8-.5-1.3s.2-.9.5-1.3c.4-.3.8-.5 1.3-.5zm10.7 0c.5 0 .9.2 1.3.5.4.4.5.8.5 1.3s-.2.9-.5 1.3c-.4.4-.8.5-1.3.5s-.9-.2-1.3-.5c-.4-.4-.5-.8-.5-1.3s.2-.9.5-1.3c.4-.3.8-.5 1.3-.5z"/></svg>