<svg id="Слой_1" xmlns="http://www.w3.org/2000/svg" viewBox="0 0 32.8 30.5"><style>.st0{fill:#fff}</style><path class="st0" d="M27.6 2.4H9.8c-1.3 0-2.3 1-2.3 2.3V9H23c1.3 0 2.3 1 2.3 2.3v5.6h2.4c1.3 0 2.3-1 2.3-2.3V4.7c-.1-1.3-1.1-2.3-2.4-2.3zm0 0"/><path class="st0" d="M23 9H5.1c-1.3 0-2.3 1-2.3 2.3v9.9c0 1.3 1 2.3 2.3 2.3h3.3v5.1l4.7-5.1H23c1.3 0 2.3-1 2.3-2.3v-9.9C25.3 10 24.2 9 23 9zM8 17.8c-.8 0-1.4-.6-1.4-1.4 0-.7.6-1.4 1.4-1.4.8 0 1.4.6 1.4 1.4 0 .8-.7 1.4-1.4 1.4zm6 0c-.8 0-1.4-.6-1.4-1.4 0-.8.6-1.4 1.4-1.4.8 0 1.4.6 1.4 1.4.1.8-.6 1.4-1.4 1.4zm6.1 0c-.8 0-1.4-.6-1.4-1.4 0-.8.6-1.4 1.4-1.4.8 0 1.4.6 1.4 1.4 0 .8-.6 1.4-1.4 1.4z"/></svg>