<svg id="Слой_1" xmlns="http://www.w3.org/2000/svg" xmlns:xlink="http://www.w3.org/1999/xlink" viewBox="-289 416.3 15.2 8.6"><style>.st0{clip-path:url(#SVGID_1_);fill-rule:evenodd;clip-rule:evenodd}</style><defs><path id="SVGID_3_" d="M-289 416.3h15.1v8.6H-289z"/></defs><clipPath id="SVGID_1_"><use xlink:href="#SVGID_3_" overflow="visible"/></clipPath><path class="st0" d="M-276.1 421.7c.5.5 1 .9 1.5 1.5.2.2.4.5.5.8.2.4 0 .8-.3.8h-2.2c-.6 0-1-.2-1.4-.6-.3-.3-.6-.6-.9-1-.1-.1-.2-.3-.4-.4-.3-.2-.6-.1-.7.2-.2.3-.2.7-.2 1 0 .5-.2.7-.7.7-1.1.1-2.2-.1-3.1-.7-.9-.5-1.5-1.2-2.1-2-1.1-1.5-2-3.2-2.8-5-.2-.4 0-.6.4-.6h2.1c.3 0 .5.2.6.4.4 1 .9 1.9 1.5 2.7.2.2.3.4.5.6.3.2.4.1.6-.2.1-.2.1-.4.1-.6.1-.7.1-1.3 0-2-.1-.4-.3-.7-.7-.8-.2 0-.2-.1-.1-.2.2-.2.3-.3.7-.3h2.5c.4.1.5.3.5.6v2.8c0 .2.1.6.3.7.2.1.4-.1.5-.2.6-.6 1-1.4 1.4-2.1.2-.3.3-.7.5-1 .1-.3.3-.4.6-.4h2.6c.4.1.5.2.4.6-.2.6-.6 1.1-.9 1.6-.4.6-.8 1.1-1.2 1.6-.5.8-.5 1.1-.1 1.5zm0 0"/></svg>