<svg xmlns="http://www.w3.org/2000/svg" viewBox="-292 415.3 10.6 10.6"><path d="M-284.4 415.3h-4.7c-1.6 0-2.9 1.3-2.9 2.9v4.7c0 1.6 1.3 2.9 2.9 2.9h4.7c1.6 0 2.9-1.3 2.9-2.9v-4.7c.1-1.6-1.2-2.9-2.9-2.9zm2 7.7c0 1.1-.9 2-2 2h-4.7c-1.1 0-2-.9-2-2v-4.7c0-1.1.9-2 2-2h4.7c1.1 0 2 .9 2 2v4.7zm0 0"/><path d="M-286.7 417.9c-1.5 0-2.7 1.2-2.7 2.7 0 1.5 1.2 2.7 2.7 2.7 1.5 0 2.7-1.2 2.7-2.7 0-1.5-1.2-2.7-2.7-2.7zm0 4.5c-1 0-1.8-.8-1.8-1.8s.8-1.8 1.8-1.8 1.8.8 1.8 1.8-.8 1.8-1.8 1.8zm2.8-5.3c-.2 0-.4.1-.5.2-.1.1-.2.3-.2.5s.1.4.2.5c.1.1.3.2.5.2s.4-.1.5-.2c.1-.1.2-.3.2-.5s-.1-.4-.2-.5c-.1-.1-.3-.2-.5-.2zm0 0"/></svg>