<svg xmlns="http://www.w3.org/2000/svg" width="109.27" height="23.186" viewBox="0 0 863 183" shape-rendering="geometricPrecision" text-rendering="geometricPrecision" image-rendering="optimizeQuality" fill-rule="evenodd" clip-rule="evenodd"><defs><style>.fil0,.fil1{fill-rule:nonzero}.fil1{fill:#0980cd}.fil0{fill:#303d6e}</style></defs><g id="Слой_x0020_1"><g id="_1879669860832"><path class="fil0" d="M231 30h-19v71h19c15 0 23-7 23-21V51c0-14-8-21-23-21zm50 21v29c0 28-17 46-50 46h-40c-5 0-7-2-7-7V12c0-5 2-7 7-7h40c33 0 50 18 50 46zm50 41c-10 0-12 4-12 8 0 5 2 9 11 9 7 0 12-1 14-1 0 0 1 0 1-1V92h-14zm2-57c28 0 38 15 38 36v43c0 6-2 8-7 10-6 3-17 4-32 4-31 0-39-9-39-28 0-21 12-28 40-28 4 0 9 1 12 1v-4c0-8-4-13-13-13-7 0-11 3-14 7s-4 4-9 3l-9-4c-5-2-6-5-4-9 6-12 18-18 37-18zm142 0c25 0 36 13 36 35v50c0 4-2 6-7 6h-13c-5 0-6-2-6-6V71c0-8-5-13-13-13-4 0-8 1-12 2 1 3 1 7 1 10v50c0 4-1 6-6 6h-13c-5 0-7-2-7-6V71c0-8-4-13-12-13-4 0-7 1-10 2-1 0-1 0-1 1v59c0 4-2 6-6 6h-14c-4 0-6-2-6-6V51c0-6 1-8 7-10 7-3 17-6 33-6 9 0 16 2 21 5 7-3 15-5 28-5zm130 9v68c0 6-2 8-7 10-7 3-18 6-35 6-25 0-37-12-37-35V44c0-5 2-7 7-7h13c4 0 6 2 6 7v48c0 9 5 13 14 13 5 0 8 0 12-1 1 0 1-1 1-2V44c0-5 1-7 6-7h13c5 0 7 2 7 7z"/><path class="fil1" d="M655 23v14h16c5 0 6 2 6 7v10c0 5-1 6-6 6h-16v29c0 13 5 16 16 16 5 0 6 1 6 6v11c0 5-1 6-6 6-29 1-41-8-41-38V60h-9c-5 0-7-1-7-6V44c0-5 2-7 7-7h9V23c0-4 1-6 6-6h13c5 0 6 2 6 6zm73 32c-10 0-15 5-15 13v3h30v-3c0-8-5-13-15-13zm0-20c28 0 41 16 41 36v10c0 5-2 9-9 9h-47v4c0 9 5 13 15 13 8 0 13-2 16-6s5-5 10-3l8 5c5 2 6 5 3 10-6 10-18 15-37 15-30 0-41-16-41-37V73c0-25 14-38 41-38zm129 91h-12c-7 0-9-1-11-6l-9-21c-2-5-5-7-11-7h-6v27c0 5-1 7-6 7h-13c-5 0-7-2-7-7V6c0-4 2-6 6-6h14c5 0 6 2 6 6v64h5l19-27c3-5 5-6 12-6h11c7 0 8 3 5 8l-23 31c4 3 6 7 9 12l15 30c3 6 2 8-4 8zM115 88c6-2 9-10 4-14L54 37c-5-4-12-7-14 3 0 1 0 6 1 10v69c-1 6 4 9 9 6l65-37z"/><path class="fil1" d="M88 139s-3 1-7 1c-3 1-7 1-8 1-4 0-8 0-12-1-34-5-56-37-50-70 5-34 37-56 70-51 34 6 56 38 51 71-1 5-3 10-5 14-2 6-5 10-6 11l9 4c3-3 6-10 6-11 2-5 4-11 5-16 7-39-19-76-58-82C44 3 8 29 1 68s20 75 58 82c5 1 11 1 16 1 0 0 4-1 7-1 6-1 8-2 9-2l-3-9z"/><path class="fil0" d="M153 146l-4-3-4-2-4-2-18-11-31-18 5 27 5 28 1 4 1 5 1 6 6-8 5-6 3-4 1 2 3 4 11 15 13-10-10-15-3-4-2-2 6-2 8-2z"/></g></g></svg>