<svg id="Слой_1" xmlns="http://www.w3.org/2000/svg" viewBox="276.9 406 41.5 30.9"><style>.st0{fill:#fff}</style><path class="st0" d="M316.8 414.1l-6.7-6.6h-11.7v28h18.4v-21.4zm1.6-.6V437l-21.5-.1V406h13.9l7.6 7.5z"/><path class="st0" d="M311.2 408.5v4.5h4.6l-4.6-4.5zm-1.5 5.2v-7c0-.2.1-.4.2-.5.3-.3.8-.3 1.1 0l7.1 7c.2.1.2.3.2.5 0 .4-.3.7-.8.7h-7.1c-.4 0-.7-.3-.7-.7zm-26.5 12.8l3.7-8.8h1.4l3.9 8.8h-1.4l-1.1-2.7h-4l-1 2.7h-1.5zm2.7-3.7h3.3l-1-2.5c-.3-.7-.5-1.4-.7-1.8-.1.6-.3 1.1-.5 1.7l-1.1 2.6zm26.7-.9c0 1.3-.3 2.4-1 3.3s-1.9 1.3-3.4 1.3-2.6-.5-3.4-1.4c-.7-.8-1-1.9-1-3.3v-.6h7.5c-.1-.9-.3-1.6-.8-2.1s-1.3-.8-2.2-.8c-1.4 0-2.3.6-2.6 1.9l-1.2-.3c.2-.8.7-1.5 1.4-1.9.7-.4 1.5-.6 2.4-.6s1.7.2 2.4.6c1.3.7 2 2.5 1.9 3.9zm-1.3.5h-6.2c0 1 .3 1.8.9 2.3.6.6 1.3.9 2.2.9.9 0 1.7-.3 2.2-.9.5-.6.8-1.3.9-2.3z"/><path class="st0" d="M278.5 435.5h18.4v-28h-11.7l-6.7 6.6v21.4zm6-29.5h13.9v30.9h-21.5v-23.4l7.6-7.5z"/><path class="st0" d="M284.1 408.5l-4.6 4.5h4.6v-4.5zm.7 5.9h-7.1c-.4 0-.8-.3-.8-.7 0-.2.1-.4.2-.5l7.1-7c.3-.3.8-.3 1.1 0 .2.1.2.3.2.5v7s-.1.7-.7.7z"/></svg>