<svg id="Слой_1" xmlns="http://www.w3.org/2000/svg" viewBox="278.8 402.9 37 36.1"><style>.st0{fill:none;stroke:#fff;stroke-width:2;stroke-linecap:round;stroke-miterlimit:10}</style><g id="XMLID_1_"><path class="st0" d="M307.9 410v-3.2c0-1.6-1.3-2.8-2.9-2.8h-21.9c-1.6 0-2.9 1.3-2.9 2.8v21.9c0 1.6 1.3 2.8 2.9 2.8H305c1.6 0 2.9-1.3 2.9-2.8V410z"/><path class="st0" d="M314.3 412.9v21.9c0 1.6-1.3 2.8-2.9 2.8h-21.9c-1.6 0-2.9-1.3-2.9-2.8v-3.2H305c1.6 0 2.9-1.3 2.9-2.8V410h3.5c1.6 0 2.9 1.3 2.9 2.9z"/></g><path class="st0" d="M299.8 417.9l-9 5.2c-.4.2-.9-.1-.9-.5v-10.3c0-.5.5-.8.9-.5l9 5.2c.4.1.4.7 0 .9z"/></svg>