<svg xmlns="http://www.w3.org/2000/svg" viewBox="0 0 145.502 165.286"><path fill="#303d6e" d="M144.835 130.435l-57.458-33.91 12.245 65.935 13.188-16.954 14.128 19.78 12.246-9.419-14.129-19.781 19.78-5.651z"/><path d="M67.611 1.619c36.772 0 66.582 29.81 66.582 66.582 0 13.597-4.079 26.24-11.076 36.778l-7.685-3.415a58.036 58.036 0 0 0 10.486-33.362C125.918 36 99.813 9.894 67.61 9.894c-32.202 0-58.308 26.105-58.308 58.308S35.407 126.51 67.61 126.51c5.597 0 11.01-.791 16.133-2.263l2.619 7.855a66.584 66.584 0 0 1-18.752 2.682c-36.772 0-66.582-29.81-66.582-66.582.001-36.773 29.811-66.583 66.583-66.583z" fill-rule="evenodd" clip-rule="evenodd" fill="#0980cd"/><path d="M37.319 42.771c-.98 2.206-.368 3.186 1.961 4.044l4.534 1.593c2.206.858 3.064.368 4.044-1.961 3.432-8.212 9.069-13.481 20.589-13.481 12.011 0 18.261 6.618 18.261 15.32 0 11.398-7.231 15.32-14.094 19.854-6.494 4.29-12.744 9.192-12.744 21.203 0 2.451.858 3.064 3.064 3.064h3.799c2.206 0 3.064-.613 3.064-3.064 0-6.863 4.412-10.417 9.437-13.604 7.966-5.025 19.119-10.172 19.119-27.943 0-13.972-10.785-25.247-29.659-25.247-17.403 0-26.84 8.334-31.375 20.222zm27.943 57.724h-.735c-4.78 0-6.25 1.593-6.25 6.251v.98c0 4.78 1.47 6.128 6.25 6.128h.735c4.78 0 6.25-1.471 6.25-6.128v-.98c.001-4.658-1.47-6.251-6.25-6.251z" fill="#0980cd"/></svg>