<?xml version="1.0" encoding="utf-8"?>
<!-- Generator: Adobe Illustrator 19.1.0, SVG Export Plug-In . SVG Version: 6.00 Build 0)  -->
<svg version="1.1" id="Слой_1" xmlns="http://www.w3.org/2000/svg" xmlns:xlink="http://www.w3.org/1999/xlink" x="0px" y="0px"
	 viewBox="0 0 19.8 18.7" style="enable-background:new 0 0 19.8 18.7;" xml:space="preserve">
<style type="text/css">
	.st0{fill-rule:evenodd;clip-rule:evenodd;}
</style>
<g>
	<path class="st0" d="M14.7,3.5c0.8,0.3,1.4,0.9,1.7,1.7c0.1,0.2,0.3,0.4,0.5,0.4c0.1,0,0.1,0,0.2,0c0.3-0.1,0.4-0.4,0.3-0.7
		c-0.4-1.1-1.2-2-2.3-2.3c-0.3-0.1-0.6,0-0.7,0.3C14.2,3,14.4,3.4,14.7,3.5L14.7,3.5z"/>
	<path class="st0" d="M9.6,18.6c0.1,0,0.2,0.1,0.3,0.1s0.2,0,0.3-0.1c6.3-3.4,9.6-9,9.6-12.6c0-3.3-2.7-6-6-6
		c-2.3,0-4.5,1.4-5.5,3.5c-0.1,0.3,0,0.6,0.3,0.7c0.3,0.1,0.6,0,0.7-0.3c0.8-1.7,2.6-2.9,4.5-2.9c2.7,0,4.9,2.2,4.9,4.9
		c0,3.2-3.3,8.4-8.8,11.5C4.4,14.4,1.1,9.3,1.1,6c0-2.7,2.2-4.9,4.9-4.9c0.7,0,1.4,0.1,2,0.4c0.3,0.1,0.6,0,0.7-0.3
		c0.1-0.3,0-0.6-0.3-0.7C7.7,0.2,6.9,0,6,0C2.7,0,0,2.7,0,6C0,9.6,3.4,15.2,9.6,18.6L9.6,18.6z"/>
</g>
</svg>
