<?xml version="1.0" encoding="UTF-8"?>
<!DOCTYPE svg PUBLIC "-//W3C//DTD SVG 1.1//EN" "http://www.w3.org/Graphics/SVG/1.1/DTD/svg11.dtd">
<!-- Creator: CorelDRAW X8 -->
<svg xmlns="http://www.w3.org/2000/svg" xml:space="preserve" width="14.0937mm" height="8.9903mm" version="1.1" style="shape-rendering:geometricPrecision; text-rendering:geometricPrecision; image-rendering:optimizeQuality; fill-rule:evenodd; clip-rule:evenodd"
viewBox="0 0 225 143"
 xmlns:xlink="http://www.w3.org/1999/xlink">
 <defs>
  <style type="text/css">
   <![CDATA[
    .fil0 {fill:#2B2A29;fill-rule:nonzero}
   ]]>
  </style>
 </defs>
 <g id="Слой_x0020_1">
  <metadata id="CorelCorpID_0Corel-Layer"/>
  <path class="fil0" d="M158 28c18,0 35,5 47,14 12,9 20,22 20,37 0,7 -2,14 -6,20 -3,5 -7,10 -13,15l0 29 -33 -15c-2,0 -4,1 -7,1 -2,0 -5,0 -8,0 -18,0 -34,-5 -46,-14 -12,-9 -20,-22 -20,-36 0,-15 8,-28 20,-37 12,-9 28,-14 46,-14zm41 22c-10,-8 -25,-13 -41,-13 -16,0 -30,5 -40,13 -10,7 -17,17 -17,29 0,11 7,21 17,28 10,8 24,13 40,13 3,0 5,0 8,-1 2,0 4,0 7,-1l1 0 23 10 0 -19 2 -1c5,-4 9,-9 12,-14 3,-5 4,-10 4,-15 0,-12 -6,-22 -16,-29z"/>
  <path class="fil0" d="M66 10c-16,0 -30,4 -40,12 -10,8 -16,18 -16,29 0,5 1,10 4,15 3,5 7,10 12,14l2 1 0 20 23 -11 1 1c2,0 5,0 7,1 2,0 5,0 7,0 11,0 22,-2 30,-6l0 10c-9,4 -19,6 -30,6 -2,0 -5,-1 -8,-1 -2,0 -4,0 -6,-1l-34 15 0 -29c-5,-4 -9,-9 -13,-15 -3,-6 -5,-13 -5,-20 0,-15 8,-27 20,-37 12,-8 28,-14 46,-14 18,0 35,6 47,14 9,7 15,16 18,25l-10 0c-3,-6 -8,-12 -14,-17 -10,-8 -25,-12 -41,-12z"/>
  <path class="fil0" d="M126 74c-2,0 -3,-1 -3,-3 0,-2 1,-3 3,-3l63 0c2,0 4,1 4,3 0,2 -2,3 -4,3l-63 0z"/>
  <path class="fil0" d="M126 92c-2,0 -3,-2 -3,-4 0,-1 1,-3 3,-3l63 0c2,0 4,2 4,3 0,2 -2,4 -4,4l-63 0z"/>
 </g>
</svg>
