<?xml version="1.0" encoding="utf-8"?>
<!-- Generator: Adobe Illustrator 19.1.0, SVG Export Plug-In . SVG Version: 6.00 Build 0)  -->
<svg version="1.1" id="Слой_1" xmlns="http://www.w3.org/2000/svg" xmlns:xlink="http://www.w3.org/1999/xlink" x="0px" y="0px"
	 viewBox="-277 408.4 40 25.5" style="enable-background:new -277 408.4 40 25.5;" xml:space="preserve">
<style type="text/css">
	.st0{fill:#2B2A29;}
</style>
<g id="Слой_x0020_1">
	<path class="st0" d="M-248.9,413.4c3.2,0,6.2,0.9,8.3,2.5c2.1,1.6,3.6,3.9,3.6,6.6c0,1.2-0.4,2.5-1.1,3.6c-0.5,0.9-1.2,1.8-2.3,2.7
		v5.1l-5.9-2.7c-0.4,0-1.2,0.2-2.7,0.2c-3.2,0-6-0.9-8.2-2.5s-3.6-3.9-3.6-6.4c0-2.7,1.4-5,3.6-6.6S-252.1,413.4-248.9,413.4z
		 M-241.7,417.3c-1.8-1.4-4.4-2.3-7.3-2.3c-2.8,0-5.3,0.9-7.1,2.3c-1.8,1.2-3,3-3,5.1c0,2,1.2,3.7,3,5c1.8,1.4,4.3,2.3,7.1,2.3
		c1.5,0,2.8-0.4,2.8-0.4l4.1,1.8v-3.4l0.4-0.2c0.9-0.7,1.6-1.6,2.1-2.5c0.5-0.9,0.7-1.8,0.7-2.7
		C-238.8,420.3-239.9,418.6-241.7,417.3z"/>
	<path class="st0" d="M-265.3,410.1c-2.8,0-5.3,0.8-7.1,2.2s-2.8,3.2-2.8,5.1c0,0.9,0.2,1.8,0.7,2.7c0.5,0.9,1.2,1.8,2.1,2.5
		l0.4,0.2v3.6l4.1-2c0,0,1.6,0.4,2.7,0.4c2,0,3.9-0.4,5.3-1.1v1.8c-1.6,0.7-3.4,1.1-5.3,1.1c-0.4,0-2.1-0.2-2.5-0.4l-6,2.7v-5.1
		c-0.9-0.7-1.6-1.6-2.3-2.7c-0.5-1.1-0.9-2.3-0.9-3.6c0-2.7,1.4-4.8,3.6-6.6c2.1-1.4,5-2.5,8.2-2.5c3.2,0,6.2,1.1,8.3,2.5
		c1.6,1.2,2.7,2.7,3.2,4.3l-1.8,0.1c-0.5-1.1-1.4-2.1-2.5-3C-259.8,410.9-262.5,410.1-265.3,410.1z"/>
	<path class="st0" d="M-254.6,421.6c-0.4,0-0.5-0.2-0.5-0.5c0-0.4,0.2-0.5,0.5-0.5h11.2c0.4,0,0.7,0.2,0.7,0.5
		c0,0.4-0.4,0.5-0.7,0.5H-254.6z"/>
	<path class="st0" d="M-254.6,424.8c-0.4,0-0.5-0.4-0.5-0.7c0-0.2,0.2-0.5,0.5-0.5h11.2c0.4,0,0.7,0.4,0.7,0.5
		c0,0.4-0.4,0.7-0.7,0.7H-254.6z"/>
</g>
</svg>
