<?xml version="1.0" encoding="utf-8"?>
<!-- Generator: Adobe Illustrator 19.1.0, SVG Export Plug-In . SVG Version: 6.00 Build 0)  -->
<svg version="1.1" id="Слой_1" xmlns="http://www.w3.org/2000/svg" xmlns:xlink="http://www.w3.org/1999/xlink" x="0px" y="0px"
	 viewBox="0 0 22.7 17.4" style="enable-background:new 0 0 22.7 17.4;" xml:space="preserve">
<style type="text/css">
	.st0{fill:none;stroke:#000000;stroke-width:1.1253;stroke-linecap:round;stroke-linejoin:round;stroke-miterlimit:22.9256;}
	.st1{fill:none;stroke:#000000;stroke-width:1.1253;stroke-miterlimit:22.9256;}
</style>
<g>
	<polyline class="st0" points="0.6,0.6 3.8,0.6 7.1,12.4 18.9,12.4 22.1,3.8 8.3,3.8 	"/>
	<path class="st1" d="M10.3,15.7c0-0.6-0.5-1.1-1.1-1.1s-1.1,0.5-1.1,1.1c0,0.6,0.5,1.1,1.1,1.1S10.3,16.3,10.3,15.7L10.3,15.7z
		 M18.9,15.7c0-0.6-0.5-1.1-1.1-1.1c-0.6,0-1.1,0.5-1.1,1.1c0,0.6,0.5,1.1,1.1,1.1C18.4,16.7,18.9,16.3,18.9,15.7L18.9,15.7z"/>
</g>
</svg>
