<?xml version="1.0" encoding="UTF-8"?>
<!DOCTYPE svg PUBLIC "-//W3C//DTD SVG 1.1//EN" "http://www.w3.org/Graphics/SVG/1.1/DTD/svg11.dtd">
<!-- Creator: CorelDRAW X8 -->
<svg xmlns="http://www.w3.org/2000/svg" xml:space="preserve" width="3.6109mm" height="3.2773mm" version="1.1" style="shape-rendering:geometricPrecision; text-rendering:geometricPrecision; image-rendering:optimizeQuality; fill-rule:evenodd; clip-rule:evenodd"
viewBox="0 0 10 9"
 xmlns:xlink="http://www.w3.org/1999/xlink">
 <defs>
  <style type="text/css">
   <![CDATA[
    .fil0 {fill:black;fill-rule:nonzero}
   ]]>
  </style>
 </defs>
 <g id="Слой_x0020_1">
  <metadata id="CorelCorpID_0Corel-Layer"/>
  <g id="_1879856247408">
   <path class="fil0" d="M0 1l1 0 2 5c0,0 0,0 0,0l5 0c0,0 0,0 0,0l2 -4c0,0 0,0 0,0 -1,0 -1,0 -1,0l-5 0c0,0 0,0 0,0 0,0 0,0 0,0l5 0 -2 3 -4 0 -1 -5c0,0 0,0 0,0l-2 0c0,0 0,0 0,0 0,1 0,1 0,1z"/>
   <path class="fil0" d="M3 9c0,0 1,-1 1,-1 0,-1 -1,-1 -1,-1 -1,0 -1,0 -1,1 0,0 0,1 1,1zm0 -2c0,0 0,1 0,1 0,0 0,0 0,0 0,0 -1,0 -1,0 0,0 1,-1 1,-1z"/>
   <path class="fil0" d="M8 9l0 0c0,0 0,0 0,-1 1,0 1,0 1,0 0,-1 -1,-1 -1,-1 -1,0 -1,1 -1,1 0,0 0,1 1,1zm0 -2c0,0 0,1 0,1 0,0 0,0 0,0 0,0 -1,0 -1,0 0,0 1,-1 1,-1z"/>
  </g>
 </g>
</svg>
