<?xml version="1.0" encoding="iso-8859-1"?>
<!-- Generator: Adobe Illustrator 22.0.1, SVG Export Plug-In . SVG Version: 6.00 Build 0)  -->
<svg version="1.1" id="Capa_1" xmlns="http://www.w3.org/2000/svg" xmlns:xlink="http://www.w3.org/1999/xlink" x="0px" y="0px"
	 viewBox="164.426 366.177 85.148 85.148" style="enable-background:new 164.426 366.177 85.148 85.148;" xml:space="preserve">
<path style="fill:#006DB5;" d="M197.022,379.481c0.918,0,1.663-0.745,1.663-1.663s-0.745-1.663-1.663-1.663
	s-1.663,0.745-1.663,1.663S196.104,379.481,197.022,379.481z"/>
<path style="fill:#006DB5;" d="M207,396.112c-0.71,0-1.477-0.447-2.159-1.258c-0.591-0.703-1.64-0.794-2.343-0.203
	c-0.703,0.591-0.794,1.64-0.203,2.343c0.889,1.058,1.934,1.794,3.042,2.166v1.941c0,0.919,0.745,1.663,1.663,1.663
	s1.663-0.745,1.663-1.663v-1.949c1.936-0.687,3.326-2.535,3.326-4.703c0-2.751-2.238-4.989-4.989-4.989
	c-0.917,0-1.663-0.746-1.663-1.663s0.746-1.663,1.663-1.663c0.589,0,1.211,0.301,1.799,0.869c0.66,0.639,1.713,0.621,2.352-0.039
	c0.639-0.66,0.621-1.713-0.039-2.352c-0.844-0.817-1.689-1.279-2.449-1.531v-1.937c0-0.919-0.745-1.663-1.663-1.663
	s-1.663,0.745-1.663,1.663v1.949c-1.936,0.687-3.326,2.535-3.326,4.703c0,2.751,2.238,4.989,4.989,4.989
	c0.917,0,1.663,0.746,1.663,1.663S207.917,396.112,207,396.112z"/>
<path style="fill:#006DB5;" d="M242.922,390.457c-3.668,0-6.652,2.984-6.652,6.652v11.853c-2.209-0.569-4.647,0.019-6.366,1.738
	l-11.153,11.153c-1.572,1.569-2.437,3.658-2.437,5.882v9.787h-1.663c-0.918,0-1.663,0.745-1.663,1.663v10.477
	c0,0.919,0.745,1.663,1.663,1.663h23.283c0.918,0,1.663-0.745,1.663-1.663v-10.477c0-0.919-0.745-1.663-1.663-1.663h-1.663v-0.785
	c0-0.437,0.178-0.866,0.488-1.176l10.381-10.381c1.571-1.571,2.436-3.66,2.436-5.881v-22.19
	C249.574,393.441,246.59,390.457,242.922,390.457z M236.27,447.999h-19.957v-7.151h19.957V447.999z M246.248,419.3
	c0,1.333-0.519,2.586-1.462,3.529l-10.381,10.381c-0.929,0.929-1.462,2.215-1.462,3.528v0.785h-13.304v-9.787
	c0-1.334,0.519-2.587,1.462-3.529l11.154-11.154c1.248-1.248,3.254-1.304,4.565-0.128c0.009,0.008,0.019,0.017,0.029,0.025
	c0.038,0.032,0.074,0.067,0.109,0.103c0.628,0.628,0.974,1.463,0.974,2.351s-0.346,1.723-0.975,2.351l-8.264,8.264
	c-0.649,0.649-0.649,1.702,0,2.352c0.65,0.649,1.702,0.65,2.352,0l8.263-8.263c1.257-1.256,1.949-2.927,1.949-4.704
	c0-1.636-0.588-3.182-1.663-4.397v-13.896c0-1.834,1.492-3.326,3.326-3.326s3.326,1.492,3.326,3.326V419.3z"/>
<path style="fill:#006DB5;" d="M199.35,437.522h-1.663v-9.787c0-2.223-0.865-4.312-2.436-5.881L184.097,410.7
	c-1.719-1.719-4.157-2.307-6.367-1.738v-11.853c0-3.668-2.984-6.652-6.652-6.652s-6.652,2.984-6.652,6.652v22.19
	c0,2.221,0.865,4.31,2.436,5.881l10.381,10.381c0.31,0.31,0.488,0.738,0.488,1.176v0.785h-1.663c-0.918,0-1.663,0.745-1.663,1.663
	v10.477c0,0.919,0.745,1.663,1.663,1.663h23.283c0.918,0,1.663-0.745,1.663-1.663v-10.477
	C201.013,438.266,200.268,437.522,199.35,437.522z M179.595,433.209l-10.381-10.381c-0.943-0.943-1.462-2.196-1.462-3.529v-22.19
	c0-1.834,1.492-3.326,3.326-3.326s3.326,1.492,3.326,3.326v13.896c-1.075,1.215-1.663,2.76-1.663,4.397
	c0,1.777,0.692,3.448,1.949,4.703l8.315,8.315c0.65,0.649,1.702,0.649,2.352,0c0.649-0.649,0.649-1.702,0-2.352l-8.316-8.316
	c-0.628-0.628-0.974-1.462-0.974-2.351s0.346-1.723,0.974-2.351c0.036-0.036,0.072-0.071,0.11-0.103l0.029-0.025
	c1.311-1.177,3.317-1.121,4.565,0.128l11.155,11.155c0.942,0.941,1.461,2.194,1.461,3.528v9.787h-13.304v-0.785
	C181.056,435.424,180.524,434.138,179.595,433.209z M197.687,447.999H177.73v-7.151h19.957V447.999z"/>
<path style="fill:#006DB5;" d="M231.281,391.253c0-13.683-11.041-24.815-24.613-24.815s-24.613,11.132-24.613,24.815
	c0,13.683,11.041,24.815,24.613,24.815S231.281,404.936,231.281,391.253z M206.667,412.76c-11.762,0-21.331-9.648-21.331-21.507
	c0-11.859,9.569-21.507,21.331-21.507s21.331,9.648,21.331,21.507C227.999,403.112,218.43,412.76,206.667,412.76z"/>
<path style="fill:#006DB5;" d="M218.484,376.882c-4.327-3.494-9.991-4.812-15.536-3.616c-0.898,0.194-1.469,1.078-1.275,1.976
	c0.194,0.898,1.079,1.468,1.976,1.275c4.558-0.983,9.204,0.093,12.746,2.953c3.541,2.86,5.573,7.107,5.573,11.653
	c0,8.253-6.714,14.967-14.967,14.967s-14.967-6.714-14.967-14.967c0-2.465,0.612-4.909,1.77-7.067
	c0.434-0.809,0.13-1.817-0.679-2.252c-0.809-0.434-1.818-0.13-2.252,0.679c-1.416,2.64-2.165,5.627-2.165,8.639
	c0,10.087,8.207,18.294,18.294,18.294s18.294-8.207,18.294-18.294C225.294,385.566,222.812,380.375,218.484,376.882z"/>
</svg>
