<?xml version="1.0" encoding="iso-8859-1"?>
<!-- Generator: Adobe Illustrator 22.0.1, SVG Export Plug-In . SVG Version: 6.00 Build 0)  -->
<svg version="1.1" id="Capa_1" xmlns="http://www.w3.org/2000/svg" xmlns:xlink="http://www.w3.org/1999/xlink" x="0px" y="0px"
	 viewBox="160.25 359.25 93 75" style="enable-background:new 160.25 359.25 93 75;" xml:space="preserve">
<g>
	<path style="fill:#006DB5;" d="M250.395,392.769h-47.649c-0.94,0-1.702,0.762-1.702,1.702v8.509h-6.807v-10.211
		c-0.005-0.248-0.029-0.496-0.07-0.74c7.136-7.48,6.858-19.329-0.623-26.466c-7.48-7.136-19.329-6.858-26.466,0.623
		c-6.9,7.233-6.9,18.61,0,25.843c-0.041,0.245-0.064,0.492-0.07,0.74v1.702h-3.404c-0.94,0-1.702,0.762-1.702,1.702v8.509
		c0,0.94,0.762,1.702,1.702,1.702h3.404v22.123c0,2.82,2.286,5.105,5.105,5.105h17.018c2.82,0,5.105-2.286,5.105-5.105v-11.912
		h6.807v11.912c0,0.94,0.762,1.702,1.702,1.702h47.649c0.94,0,1.702-0.762,1.702-1.702v-34.035
		C252.097,393.531,251.335,392.769,250.395,392.769z M189.132,396.173h1.702v28.93h-1.702V396.173z M180.623,363.84
		c8.454-0.005,15.311,6.845,15.316,15.299c0.002,4.222-1.739,8.257-4.812,11.151c-1.129,1.078-2.421,1.971-3.829,2.645
		c-0.02,0-0.039,0.024-0.06,0.034h-0.022c-0.138,0.073-0.288,0.134-0.437,0.196l0,0h-0.019h-0.015
		c-1.926,0.86-4.012,1.306-6.121,1.307c-0.971,0-1.939-0.092-2.893-0.274c-8.307-1.593-13.751-9.618-12.158-17.926
		C166.956,369.053,173.273,363.835,180.623,363.84z M165.307,402.98v-5.105h1.702v5.105H165.307z M189.132,430.208h-17.018
		c-0.94,0-1.702-0.762-1.702-1.702v-33.666c0.024,0.015,0.049,0.026,0.073,0.041c0.607,0.391,1.236,0.746,1.884,1.064
		c0.063,0.031,0.126,0.056,0.189,0.085c3.42,1.672,7.28,2.226,11.033,1.586l0.17-0.027c0.654-0.111,1.301-0.258,1.938-0.439h0.026
		v29.655c0,0.94,0.762,1.702,1.702,1.702h3.404C190.83,429.445,190.07,430.206,189.132,430.208z M194.237,413.191v-6.807h6.807
		v6.807H194.237z M248.693,426.805h-44.246v-30.632h44.246V426.805z"/>
	<path style="fill:#006DB5;" d="M180.623,392.769c7.519,0,13.614-6.095,13.614-13.614s-6.095-13.614-13.614-13.614
		s-13.614,6.095-13.614,13.614C167.017,386.671,173.107,392.761,180.623,392.769z M180.623,368.945
		c5.639,0,10.211,4.571,10.211,10.211c0,5.639-4.571,10.211-10.211,10.211s-10.211-4.571-10.211-10.211
		C170.418,373.519,174.986,368.95,180.623,368.945z"/>
	<path style="fill:#006DB5;" d="M175.517,379.155c0-2.82,2.286-5.105,5.105-5.105c0.94,0,1.702-0.762,1.702-1.702
		s-0.762-1.702-1.702-1.702c-4.697,0.006-8.503,3.812-8.509,8.509c0,0.94,0.762,1.702,1.702,1.702
		C174.755,380.857,175.517,380.095,175.517,379.155z"/>
	<path style="fill:#006DB5;" d="M206.149,423.401c0,0.94,0.762,1.702,1.702,1.702h37.439c0.94,0,1.702-0.762,1.702-1.702v-23.825
		c0-0.94-0.762-1.702-1.702-1.702h-37.439c-0.94,0-1.702,0.762-1.702,1.702V423.401z M209.553,421.699v-0.58l10.233-4.385
		l7.854,3.143c0.522,0.207,1.112,0.143,1.578-0.17l9.389-6.259l4.983,2.496v5.755H209.553z M243.588,401.278v10.861l-4.345-2.182
		c-0.546-0.272-1.195-0.231-1.702,0.107l-9.465,6.31l-7.677-3.063c-0.42-0.166-0.888-0.159-1.304,0.017l-9.543,4.089v-16.139
		H243.588z"/>
	<path style="fill:#006DB5;" d="M224.868,413.191c2.82,0,5.105-2.286,5.105-5.105c0-2.82-2.286-5.105-5.105-5.105
		c-2.82,0-5.105,2.286-5.105,5.105C219.763,410.905,222.049,413.191,224.868,413.191z M224.868,406.384
		c0.94,0,1.702,0.762,1.702,1.702s-0.762,1.702-1.702,1.702c-0.94,0-1.702-0.762-1.702-1.702S223.929,406.384,224.868,406.384z"/>
</g>
</svg>
