<?xml version="1.0" encoding="iso-8859-1"?>
<!-- Generator: Adobe Illustrator 22.0.1, SVG Export Plug-In . SVG Version: 6.00 Build 0)  -->
<svg version="1.1" id="Capa_1" xmlns="http://www.w3.org/2000/svg" xmlns:xlink="http://www.w3.org/1999/xlink" x="0px" y="0px"
	 viewBox="189.386 353.05 87.947 87.599" style="enable-background:new 189.386 353.05 87.947 87.599;" xml:space="preserve">
<path style="fill:#006DB5;" d="M193.772,440.866h24.857c0.808,0,1.462-0.655,1.462-1.462s-0.655-1.462-1.462-1.462h-24.857
	c-0.808,0-1.462-0.655-1.462-1.462v-70.186c0-0.808,0.655-1.462,1.462-1.462h11.698c0.808,0,1.462-0.655,1.462-1.462
	s-0.655-1.462-1.462-1.462h-11.698c-2.423,0-4.387,1.964-4.387,4.387v70.186C189.386,438.902,191.35,440.866,193.772,440.866z"/>
<path style="fill:#006DB5;" d="M231.79,439.404c0,0.808,0.655,1.462,1.462,1.462h21.933c2.423,0,4.387-1.964,4.387-4.387V417.47
	c0-0.808-0.655-1.462-1.462-1.462s-1.462,0.655-1.462,1.462v19.009c0,0.808-0.655,1.462-1.462,1.462h-21.933
	C232.444,437.941,231.79,438.596,231.79,439.404z"/>
<path style="fill:#006DB5;" d="M255.185,361.907h-11.698c-0.808,0-1.462,0.655-1.462,1.462s0.655,1.462,1.462,1.462h11.698
	c0.808,0,1.462,0.655,1.462,1.462v27.782c0,0.808,0.655,1.462,1.462,1.462s1.462-0.655,1.462-1.462v-27.782
	C259.572,363.871,257.608,361.907,255.185,361.907z"/>
<path style="fill:#006DB5;" d="M205.47,367.756h-8.773c-0.808,0-1.462,0.655-1.462,1.462v64.337c0,0.808,0.655,1.462,1.462,1.462
	h24.857c0.808,0,1.462-0.655,1.462-1.462s-0.655-1.462-1.462-1.462h-23.395V370.68h7.311c0.808,0,1.462-0.655,1.462-1.462
	C206.932,368.41,206.278,367.756,205.47,367.756z"/>
<path style="fill:#006DB5;" d="M252.261,435.017c0.808,0,1.462-0.655,1.462-1.462v-10.235c0-0.808-0.655-1.462-1.462-1.462
	c-0.808,0-1.462,0.655-1.462,1.462v8.773h-8.773c-0.808,0-1.462,0.655-1.462,1.462s0.655,1.462,1.462,1.462H252.261z"/>
<path style="fill:#006DB5;" d="M243.487,370.68h7.311v29.244c0,0.808,0.655,1.462,1.462,1.462c0.808,0,1.462-0.655,1.462-1.462
	v-30.706c0-0.808-0.655-1.462-1.462-1.462h-8.773c-0.808,0-1.462,0.655-1.462,1.462C242.025,370.025,242.68,370.68,243.487,370.68z"
	/>
<path style="fill:#006DB5;" d="M233.252,353.134h-17.546c-0.808,0-1.462,0.655-1.462,1.462v3.713h-2.924
	c-0.808,0-1.462,0.655-1.462,1.462v12.372c0,0.808,0.655,1.462,1.462,1.462h26.32c0.808,0,1.462-0.655,1.462-1.462v-12.372
	c0-0.808-0.655-1.462-1.462-1.462h-2.924v-3.713C234.714,353.788,234.059,353.134,233.252,353.134z M236.176,361.233v9.447h-23.395
	v-9.447h2.924c0.808,0,1.462-0.655,1.462-1.462v-3.713h14.622v3.713c0,0.808,0.655,1.462,1.462,1.462H236.176z"/>
<path style="fill:#006DB5;" d="M220.092,376.529c-0.808,0-1.462,0.655-1.462,1.462v5.849c0,0.808,0.655,1.462,1.462,1.462h8.773
	c0.808,0,1.462-0.655,1.462-1.462v-5.849c0-0.808-0.655-1.462-1.462-1.462H220.092z M227.403,382.378h-5.849v-2.924h5.849V382.378z"
	/>
<path style="fill:#006DB5;" d="M212.781,418.933c-0.808,0-1.462,0.655-1.462,1.462v5.849c0,0.808,0.655,1.462,1.462,1.462h8.773
	c0.808,0,1.462-0.655,1.462-1.462v-5.849c0-0.808-0.655-1.462-1.462-1.462H212.781z M220.092,424.782h-5.849v-2.924h5.849V424.782z"
	/>
<path style="fill:#006DB5;" d="M228.865,407.235c0.808,0,1.462-0.655,1.462-1.462v-5.849c0-0.808-0.655-1.462-1.462-1.462h-8.773
	c-0.808,0-1.462,0.655-1.462,1.462v5.849c0,0.808,0.655,1.462,1.462,1.462H228.865z M221.554,401.386h5.849v2.924h-5.849V401.386z"
	/>
<path style="fill:#006DB5;" d="M233.252,399.924v5.849c0,0.808,0.655,1.462,1.462,1.462h8.773c0.808,0,1.462-0.655,1.462-1.462
	v-5.849c0-0.808-0.655-1.462-1.462-1.462h-8.773C233.907,398.462,233.252,399.117,233.252,399.924z M236.176,401.386h5.849v2.924
	h-5.849V401.386z"/>
<path style="fill:#006DB5;" d="M204.008,399.924v5.849c0,0.808,0.655,1.462,1.462,1.462h8.773c0.808,0,1.462-0.655,1.462-1.462
	v-5.849c0-0.808-0.655-1.462-1.462-1.462h-8.773C204.663,398.462,204.008,399.117,204.008,399.924z M206.932,401.386h5.849v2.924
	h-5.849V401.386z"/>
<path style="fill:#006DB5;" d="M208.395,392.613v1.462c0,0.808,0.655,1.462,1.462,1.462c0.808,0,1.462-0.655,1.462-1.462h11.698
	c0,0.808,0.655,1.462,1.462,1.462c0.808,0,1.462-0.655,1.462-1.462h11.698c0,0.808,0.655,1.462,1.462,1.462
	c0.808,0,1.462-0.655,1.462-1.462v-1.462c0-0.808-0.655-1.462-1.462-1.462h-13.16v-1.462c0-0.808-0.655-1.462-1.462-1.462
	c-0.808,0-1.462,0.655-1.462,1.462v1.462h-13.16C209.049,391.151,208.395,391.806,208.395,392.613z"/>
<path style="fill:#006DB5;" d="M240.563,413.084v-1.462c0-0.808-0.655-1.462-1.462-1.462c-0.808,0-1.462,0.655-1.462,1.462h-20.471
	c-0.808,0-1.462,0.655-1.462,1.462v1.462c0,0.808,0.655,1.462,1.462,1.462s1.462-0.655,1.462-1.462h20.471
	C239.908,414.546,240.563,413.891,240.563,413.084z"/>
<path style="fill:#006DB5;" d="M260,397.428l-27.782,27.782c-0.032,0.042-0.061,0.086-0.088,0.132
	c-0.028,0.035-0.07,0.054-0.095,0.091l-8.773,13.16c-0.449,0.672-0.268,1.58,0.404,2.028c0.492,0.328,1.133,0.328,1.624,0
	l13.16-8.773c0.037-0.025,0.056-0.067,0.091-0.095c0.045-0.027,0.089-0.056,0.132-0.088l27.782-27.782
	c0.571-0.571,0.571-1.497,0-2.068l-4.387-4.387C261.497,396.857,260.571,396.857,260,397.428z M229.75,434.14l3.729-5.593
	l1.866,1.864L229.75,434.14z M237.639,428.563l-2.319-2.319l25.714-25.714l2.319,2.319L237.639,428.563z"/>
<path style="fill:#006DB5;" d="M268.345,401.386c0.808,0,1.462-0.655,1.462-1.462c0-0.388-0.154-0.759-0.428-1.033l-4.387-4.387
	c-0.581-0.561-1.507-0.545-2.068,0.036c-0.547,0.567-0.547,1.465,0,2.032l4.387,4.387
	C267.585,401.232,267.957,401.386,268.345,401.386z"/>
<path style="fill:#006DB5;" d="M265.849,393.647l4.387,4.387c0.571,0.571,1.497,0.571,2.068,0l4.387-4.387
	c0.571-0.571,0.571-1.497,0-2.068l-4.387-4.387c-0.571-0.571-1.497-0.571-2.068,0l-4.387,4.387
	C265.278,392.15,265.278,393.076,265.849,393.647z M271.269,390.294l2.319,2.319l-2.319,2.319l-2.319-2.319L271.269,390.294z"/>
</svg>
