<?xml version="1.0" encoding="iso-8859-1"?>
<!-- Generator: Adobe Illustrator 22.0.1, SVG Export Plug-In . SVG Version: 6.00 Build 0)  -->
<svg version="1.1" id="Capa_1" xmlns="http://www.w3.org/2000/svg" xmlns:xlink="http://www.w3.org/1999/xlink" x="0px" y="0px"
	 viewBox="171.015 351.5 106.218 70.75" style="enable-background:new 171.015 351.5 106.218 70.75;" xml:space="preserve">
<path style="fill:#006DB5;" d="M242.257,391.232l-9.02-4.009c-0.637-0.283-1.049-0.917-1.049-1.614v-2.477
	c3.03-2.414,4.978-6.132,4.978-10.298v-3.487c0.998-0.552,1.659-1.617,1.659-2.811v-0.338c0-7.26-5.906-13.166-13.166-13.166h-3.318
	c-7.26,0-13.166,5.906-13.166,13.166v3.07c0,1.049,0.452,2,1.239,2.608c0.133,0.103,0.274,0.194,0.42,0.272v0.685
	c0,4.166,1.947,7.884,4.977,10.298v2.477c0,0.697-0.412,1.331-1.049,1.614l-9.02,4.009c-2.954,1.313-4.863,4.25-4.863,7.483v20.574
	c0,0.857,0.695,1.552,1.552,1.552s1.552-0.695,1.552-1.552v-20.573c0-0.18,0.013-0.358,0.031-0.534l4.156,4.156
	c0.647,0.647,1.003,1.507,1.003,2.422v14.529c0,0.857,0.695,1.552,1.552,1.552s1.552-0.695,1.552-1.552v-14.529
	c0-1.744-0.679-3.384-1.912-4.617l-4.955-4.955c0.446-0.463,0.982-0.847,1.591-1.118l8.868-3.941l6.576,6.576v22.584
	c0,0.857,0.695,1.552,1.552,1.552c0.857,0,1.552-0.695,1.552-1.552v-22.584l6.576-6.576l8.868,3.941
	c0.609,0.271,1.145,0.655,1.591,1.118l-4.955,4.955c-1.233,1.233-1.912,2.873-1.912,4.617v14.529c0,0.857,0.695,1.552,1.552,1.552
	s1.552-0.695,1.552-1.552v-14.529c0-0.915,0.356-1.775,1.003-2.422l4.156-4.156c0.019,0.176,0.031,0.354,0.031,0.534v20.574
	c0,0.857,0.695,1.552,1.552,1.552s1.552-0.695,1.552-1.552v-20.573C247.12,395.482,245.212,392.545,242.257,391.232z
	 M213.939,372.834v-0.698c0.969-0.384,1.914-0.995,2.819-1.83c0.63-0.581,0.669-1.563,0.088-2.193
	c-0.581-0.63-1.563-0.669-2.193-0.088c-0.776,0.717-1.552,1.18-2.305,1.376c-0.018,0.005-0.032,0.007-0.041,0.008
	c-0.011-0.022-0.026-0.067-0.026-0.14v-3.07c0-5.548,4.514-10.061,10.061-10.061h3.318c5.548,0,10.061,4.514,10.061,10.061v0.338
	c0,0.05-0.03,0.094-0.07,0.102c-9.295,1.836-13.957-1.624-15.53-3.197c-0.606-0.606-1.589-0.606-2.195,0
	c-0.606,0.606-0.606,1.589,0,2.195c4.82,4.82,11.854,4.907,16.136,4.393v2.805c0,5.548-4.514,10.061-10.061,10.061
	C218.452,382.895,213.939,378.382,213.939,372.834z M224,386c1.801,0,3.519-0.364,5.084-1.022v0.631
	c0,0.894,0.248,1.748,0.687,2.486L224,393.866l-5.771-5.771c0.439-0.738,0.687-1.592,0.687-2.486v-0.632
	C220.481,385.636,222.199,386,224,386z"/>
<path style="fill:#006DB5;" d="M199.007,379.47c0-4.05-2.104-7.614-5.275-9.666c0.196-0.628,0.298-1.286,0.298-1.948
	c0-3.6-2.929-6.529-6.529-6.529s-6.529,2.929-6.529,6.529c0,0.67,0.101,1.322,0.298,1.948c-3.171,2.051-5.275,5.616-5.275,9.665
	v3.318c0,3.921,1.973,7.389,4.977,9.467v3.414c0,0.673-0.374,1.278-0.976,1.58l-5.369,2.684c-2.226,1.113-3.609,3.351-3.609,5.84
	v13.515c0,0.857,0.695,1.552,1.552,1.552s1.552-0.695,1.552-1.552v-12.844l2.529,2.529c0.647,0.647,1.003,1.507,1.003,2.422v7.893
	c0,0.857,0.695,1.552,1.552,1.552s1.552-0.695,1.552-1.552v-7.893c0-1.744-0.679-3.384-1.912-4.617l-3.52-3.52
	c-0.017-0.017-0.035-0.032-0.053-0.048c0.221-0.195,0.469-0.365,0.741-0.501l5.369-2.684c0.275-0.138,0.531-0.3,0.77-0.481
	l3.795,3.795v15.948c0,0.857,0.695,1.552,1.552,1.552s1.552-0.695,1.552-1.552v-15.948l3.795-3.795
	c0.239,0.181,0.495,0.343,0.77,0.481l1.48,0.74c0.223,0.112,0.46,0.164,0.693,0.164c0.569,0,1.118-0.315,1.39-0.858
	c0.384-0.767,0.073-1.699-0.694-2.083l-1.48-0.74c-0.602-0.301-0.976-0.906-0.976-1.579v-3.414c3.004-2.078,4.977-5.546,4.977-9.467
	V379.47L199.007,379.47z M184.075,367.857c0-1.889,1.536-3.425,3.425-3.425c1.889,0,3.425,1.537,3.425,3.425
	c0,0.208-0.019,0.412-0.054,0.612c-1.067-0.327-2.198-0.505-3.371-0.505c-1.171,0-2.301,0.177-3.366,0.503
	C184.098,368.267,184.075,368.064,184.075,367.857z M187.5,371.068c4.633,0,8.402,3.769,8.402,8.402v0.563
	c-6.463,1.979-10.314-2.938-10.479-3.153c-0.27-0.36-0.683-0.585-1.132-0.617c-0.449-0.031-0.89,0.133-1.208,0.451
	c-1.482,1.482-2.933,2.196-3.981,2.541C179.218,374.721,182.939,371.068,187.5,371.068z M191.087,396.915l-3.587,3.587l-3.587-3.587
	c0.105-0.4,0.162-0.818,0.162-1.246v-1.895c1.082,0.338,2.233,0.521,3.425,0.521c1.192,0,2.343-0.182,3.425-0.521v1.895
	C190.925,396.098,190.982,396.515,191.087,396.915z M187.5,391.191c-4.633,0-8.402-3.769-8.402-8.402v-0.322
	c1.238-0.284,3.073-0.945,4.988-2.485c0.677,0.639,1.646,1.423,2.879,2.096c1.458,0.795,3.472,1.531,5.932,1.531
	c0.935,0,1.935-0.109,2.993-0.358C195.648,387.669,191.978,391.191,187.5,391.191z"/>
<path style="fill:#006DB5;" d="M273.375,396.615l-8.687-4.344c-0.602-0.301-0.976-0.906-0.976-1.579v-2.2
	c2.033-1.805,3.318-4.436,3.318-7.363v-1.767c0.036,0,0.071,0.001,0.107,0.001c0.857,0,1.552-0.695,1.552-1.552v-3.318
	c0-5.43-4.418-9.848-9.848-9.848h-3.318c-5.43,0-9.848,4.418-9.848,9.848v3.318c0,0.857,0.695,1.552,1.552,1.552
	c0.013,0,0.05,0,0.107-0.003v1.769c0,2.927,1.285,5.558,3.318,7.363v2.2c0,0.673-0.374,1.278-0.976,1.579
	c-0.767,0.383-1.078,1.316-0.694,2.083c0.272,0.544,0.82,0.859,1.39,0.859c0.233,0,0.47-0.053,0.693-0.164
	c0.275-0.138,0.531-0.3,0.77-0.481l3.795,3.795v20.925c0,0.857,0.695,1.552,1.552,1.552s1.552-0.695,1.552-1.552v-20.926
	l3.795-3.795c0.239,0.181,0.495,0.343,0.77,0.481l8.406,4.203l-2.55,2.55c-1.233,1.233-1.912,2.873-1.912,4.617v12.87
	c0,0.857,0.695,1.552,1.552,1.552s1.552-0.695,1.552-1.552v-12.87c0-0.915,0.356-1.775,1.003-2.422l2.415-2.415
	c0.073,0.281,0.113,0.574,0.113,0.874v16.833c0,0.857,0.695,1.552,1.552,1.552s1.552-0.695,1.552-1.552v-16.833
	C276.984,399.967,275.601,397.729,273.375,396.615z M248.779,374.493c0-3.718,3.025-6.743,6.743-6.743h3.318
	c3.718,0,6.743,3.025,6.743,6.743v1.724c-6.748-0.364-10.82-2.99-10.859-3.016c-0.263-0.175-0.562-0.261-0.861-0.261
	c-0.401,0-0.798,0.155-1.098,0.455c-1.485,1.485-2.94,2.2-3.987,2.544L248.779,374.493L248.779,374.493z M250.439,378.627
	c1.087-0.434,2.354-1.125,3.643-2.223c1.63,0.848,5.041,2.314,9.844,2.798v1.927c0,3.718-3.025,6.743-6.743,6.743
	c-3.718,0-6.743-3.025-6.743-6.743V378.627L250.439,378.627z M257.182,390.977c1.204,0,2.358-0.218,3.425-0.615v0.331
	c0,0.428,0.057,0.845,0.162,1.246l-3.587,3.587l-3.587-3.587c0.105-0.4,0.162-0.818,0.162-1.246v-0.331
	C254.824,390.759,255.978,390.977,257.182,390.977z"/>
</svg>
