<?xml version="1.0" encoding="iso-8859-1"?>
<!-- Generator: Adobe Illustrator 22.0.1, SVG Export Plug-In . SVG Version: 6.00 Build 0)  -->
<svg version="1.1" id="Capa_1" xmlns="http://www.w3.org/2000/svg" xmlns:xlink="http://www.w3.org/1999/xlink" x="0px" y="0px"
	 viewBox="187.172 341 90.578 90.375" style="enable-background:new 187.172 341 90.578 90.375;" xml:space="preserve">
<path style="fill:#006DB5;" d="M236.389,421.833h-7.75c-0.969,0-1.755,0.786-1.755,1.755c0,0.969,0.786,1.755,1.755,1.755h7.75
	c0.969,0,1.755-0.786,1.755-1.755C238.144,422.619,237.358,421.833,236.389,421.833z"/>
<path style="fill:#006DB5;" d="M250.557,356.986c0.326-0.326,0.514-0.779,0.514-1.241s-0.188-0.913-0.514-1.241
	c-0.326-0.326-0.779-0.514-1.24-0.514s-0.914,0.188-1.241,0.514c-0.326,0.326-0.514,0.779-0.514,1.241
	c0,0.463,0.188,0.914,0.514,1.241c0.326,0.328,0.779,0.514,1.241,0.514S250.231,357.315,250.557,356.986z"/>
<path style="fill:#006DB5;" d="M276.427,354.18c-0.009-0.005-0.016-0.01-0.026-0.014l-26.322-12.704
	c-0.482-0.233-1.044-0.233-1.525,0l-26.322,12.704c-0.606,0.293-0.992,0.907-0.992,1.58s0.386,1.288,0.992,1.58l10.259,4.951v10.854
	c0,0.082,0.007,0.164,0.018,0.244h-0.488c-3.224,0-5.848,2.623-5.848,5.848c0,3.224,2.623,5.848,5.848,5.848h0.567
	c0.533,4.974,3.243,9.306,7.155,12.023h-16.347c-1.027,0-1.998,0.244-2.857,0.678v-25.897c0-1.576,1.282-2.857,2.857-2.857h4.533
	c0.969,0,1.755-0.786,1.755-1.755c0-0.969-0.786-1.755-1.755-1.755h-4.533c-1.814,0-3.451,0.764-4.612,1.984
	c-1.161-1.221-2.798-1.984-4.612-1.984h-24.869c-0.969,0-1.755,0.786-1.755,1.755v31.587v6.846c0,0.969,0.786,1.755,1.755,1.755
	h2.105v8.594h-2.105c-0.969,0-1.755,0.786-1.755,1.755v3.159c0,5.612,4.566,10.178,10.178,10.178h69.49
	c5.612,0,10.178-4.566,10.178-10.178v-3.159c0-0.969-0.786-1.755-1.755-1.755h-2.106v-25.796c0-0.969-0.786-1.755-1.755-1.755
	c-0.969,0-1.755,0.786-1.755,1.755v25.796h-75.106v-8.594h53.347c0.969,0,1.755-0.786,1.755-1.755v-5.619
	c8.35-0.344,15.148-6.802,16.027-15.005h0.567c3.224,0,5.848-2.623,5.848-5.848c0-3.224-2.623-5.848-5.848-5.848h-0.488
	c0.011-0.08,0.018-0.161,0.018-0.244v-10.853l7.741-3.736v8.013c0,0.969,0.786,1.755,1.755,1.755c0.969,0,1.755-0.786,1.755-1.755
	v-10.809C277.393,355.061,277,354.469,276.427,354.18z M273.884,420.956c0,3.677-2.991,6.668-6.668,6.668h-69.49
	c-3.677,0-6.668-2.991-6.668-6.668v-1.404h82.827V420.956z M249.316,344.991l18.649,9h-13.713c-0.969,0-1.755,0.786-1.755,1.755
	c0,0.969,0.786,1.755,1.755,1.755h13.713l-18.649,9l-22.285-10.755L249.316,344.991z M229.683,379.223
	c0-1.289,1.049-2.338,2.338-2.338h0.47v4.676h-0.47C230.732,381.561,229.683,380.512,229.683,379.223z M191.057,369.016h23.114
	c1.576,0,2.857,1.282,2.857,2.857v25.897c-0.86-0.434-1.831-0.678-2.857-0.678h-23.114V369.016z M191.057,400.603h23.114
	c1.576,0,2.857,1.282,2.857,2.857c0,0.166,0.025,0.327,0.068,0.479h-26.039V400.603z M220.47,403.939
	c0.043-0.152,0.068-0.313,0.068-0.479c0-1.576,1.282-2.857,2.857-2.857h23.114v3.337L220.47,403.939L220.47,403.939z
	 M249.316,396.581c-7.343,0-13.316-5.974-13.316-13.317v-7.444l12.61,5.548c0.225,0.099,0.466,0.149,0.707,0.149
	c0.241,0,0.482-0.049,0.707-0.149l12.61-5.548v7.444C262.633,390.607,256.659,396.581,249.316,396.581z M268.95,379.223
	c0,1.289-1.049,2.338-2.338,2.338h-0.47v-4.676h0.47C267.901,376.884,268.95,377.934,268.95,379.223z M262.633,371.986
	l-13.316,5.859L236,371.986v-8.015l12.554,6.059c0.241,0.116,0.502,0.174,0.763,0.174c0.261,0,0.522-0.058,0.763-0.174l12.554-6.059
	V371.986L262.633,371.986z"/>
<path style="fill:#006DB5;" d="M275.638,372.627c-0.462,0-0.914,0.188-1.241,0.514s-0.514,0.779-0.514,1.241
	s0.188,0.914,0.514,1.241c0.326,0.326,0.779,0.514,1.241,0.514s0.914-0.188,1.24-0.514c0.326-0.326,0.514-0.779,0.514-1.241
	s-0.188-0.914-0.514-1.241C276.553,372.815,276.1,372.627,275.638,372.627z"/>
<path style="fill:#006DB5;" d="M209.8,385.509c-0.462,0-0.914,0.188-1.24,0.514c-0.328,0.328-0.514,0.779-0.514,1.241
	s0.186,0.914,0.514,1.24c0.326,0.328,0.777,0.514,1.24,0.514c0.462,0,0.914-0.186,1.241-0.514c0.326-0.326,0.514-0.777,0.514-1.24
	c0-0.462-0.188-0.914-0.514-1.241C210.712,385.697,210.261,385.509,209.8,385.509z"/>
<path style="fill:#006DB5;" d="M203.165,385.512h-5.615c-0.969,0-1.755,0.786-1.755,1.755c0,0.969,0.786,1.755,1.755,1.755h5.615
	c0.969,0,1.755-0.786,1.755-1.755C204.92,386.298,204.134,385.512,203.165,385.512z"/>
<path style="fill:#006DB5;" d="M197.549,380.598h12.25c0.969,0,1.755-0.786,1.755-1.755s-0.786-1.755-1.755-1.755h-12.25
	c-0.969,0-1.755,0.786-1.755,1.755S196.58,380.598,197.549,380.598z"/>
</svg>
