<?xml version="1.0" encoding="utf-8"?>
<!-- Generator: Adobe Illustrator 22.0.1, SVG Export Plug-In . SVG Version: 6.00 Build 0)  -->
<svg version="1.1" id="Слой_1" xmlns="http://www.w3.org/2000/svg" xmlns:xlink="http://www.w3.org/1999/xlink" x="0px" y="0px"
	 viewBox="0 0 24.5 23.5" style="enable-background:new 0 0 24.5 23.5;" xml:space="preserve">
<style type="text/css">
	.st0{fill:#DBDBDB;}
	.st1{fill:#137FC3;}
</style>
<path class="st0" d="M-22.3,7.1c0.2,0.3,0.3,0.6,0.2,0.9l-1,5.5c0,0.3-0.2,0.5-0.4,0.7c-0.2,0.2-0.5,0.3-0.8,0.3h-13.9l-0.3,1.6
	h13.3c0.3,0,0.6,0.1,0.8,0.3c0.2,0.2,0.4,0.5,0.4,0.8c0,0.3-0.1,0.6-0.4,0.8c-0.2,0.2-0.5,0.3-0.8,0.3h-14.7c-0.4,0-0.7-0.1-0.9-0.4
	c-0.2-0.3-0.3-0.6-0.3-1l0.6-3.4l-1-9.6L-44,3.1c-0.3-0.1-0.5-0.3-0.7-0.6c-0.1-0.3-0.2-0.6-0.1-0.9c0.1-0.3,0.3-0.5,0.6-0.7
	c0.3-0.1,0.6-0.2,0.9-0.1l3.5,1.1c0.2,0.1,0.4,0.2,0.5,0.4C-39.1,2.5-39,2.8-39,3l0.2,1.9l15.7,1.8C-22.7,6.7-22.5,6.9-22.3,7.1
	L-22.3,7.1z"/>
<path class="st0" d="M-38,19.1c0.5,0,0.9,0.2,1.3,0.5c0.4,0.4,0.5,0.8,0.5,1.3s-0.2,0.9-0.5,1.3c-0.4,0.4-0.8,0.5-1.3,0.5
	c-0.5,0-0.9-0.2-1.3-0.5c-0.4-0.4-0.5-0.8-0.5-1.3s0.2-0.9,0.5-1.3C-38.9,19.2-38.5,19.1-38,19.1L-38,19.1z"/>
<path class="st0" d="M-27.3,19.1c0.5,0,0.9,0.2,1.3,0.5c0.4,0.4,0.5,0.8,0.5,1.3s-0.2,0.9-0.5,1.3c-0.4,0.4-0.8,0.5-1.3,0.5
	c-0.5,0-0.9-0.2-1.3-0.5c-0.4-0.4-0.5-0.8-0.5-1.3s0.2-0.9,0.5-1.3C-28.2,19.2-27.8,19.1-27.3,19.1L-27.3,19.1z"/>
<path class="st1" d="M23.4,7.1c0.2,0.3,0.3,0.6,0.2,0.9l-1,5.5c0,0.3-0.2,0.5-0.4,0.7c-0.2,0.2-0.5,0.3-0.8,0.3H7.6l-0.3,1.6h13.3
	c0.3,0,0.6,0.1,0.8,0.3c0.2,0.2,0.4,0.5,0.4,0.8c0,0.3-0.1,0.6-0.4,0.8c-0.2,0.2-0.5,0.3-0.8,0.3H5.9c-0.4,0-0.7-0.1-0.9-0.4
	c-0.2-0.3-0.3-0.6-0.3-1l0.6-3.4L4.4,4L1.7,3.2C1.4,3.1,1.1,2.9,1,2.6C0.9,2.3,0.8,2,0.9,1.7C1,1.4,1.2,1.1,1.5,1
	c0.3-0.1,0.6-0.2,0.9-0.1L5.9,2c0.2,0.1,0.4,0.2,0.5,0.4C6.5,2.6,6.6,2.8,6.7,3l0.2,1.9l15.7,1.8C22.9,6.7,23.2,6.9,23.4,7.1
	L23.4,7.1z"/>
<path class="st1" d="M7.7,19.1c0.5,0,0.9,0.2,1.3,0.5c0.4,0.4,0.5,0.8,0.5,1.3c0,0.5-0.2,0.9-0.5,1.3c-0.4,0.4-0.8,0.5-1.3,0.5
	c-0.5,0-0.9-0.2-1.3-0.5c-0.4-0.4-0.5-0.8-0.5-1.3c0-0.5,0.2-0.9,0.5-1.3C6.8,19.3,7.2,19.1,7.7,19.1L7.7,19.1z"/>
<path class="st1" d="M18.4,19.1c0.5,0,0.9,0.2,1.3,0.5c0.4,0.4,0.5,0.8,0.5,1.3c0,0.5-0.2,0.9-0.5,1.3c-0.4,0.4-0.8,0.5-1.3,0.5
	c-0.5,0-0.9-0.2-1.3-0.5c-0.4-0.4-0.5-0.8-0.5-1.3c0-0.5,0.2-0.9,0.5-1.3C17.5,19.3,17.9,19.1,18.4,19.1L18.4,19.1z"/>
</svg>
