<?xml version="1.0" encoding="utf-8"?>
<!-- Generator: Adobe Illustrator 22.0.1, SVG Export Plug-In . SVG Version: 6.00 Build 0)  -->
<svg version="1.1" id="Слой_1" xmlns="http://www.w3.org/2000/svg" xmlns:xlink="http://www.w3.org/1999/xlink" x="0px" y="0px"
	 viewBox="0 0 32.8 30.5" style="enable-background:new 0 0 32.8 30.5;" xml:space="preserve">
<style type="text/css">
	.st0{fill:#FFFFFF;}
</style>
<g>
	<path class="st0" d="M27.6,2.4H9.8c-1.3,0-2.3,1-2.3,2.3V9H23c1.3,0,2.3,1,2.3,2.3v5.6h2.4c1.3,0,2.3-1,2.3-2.3V4.7
		C29.9,3.4,28.9,2.4,27.6,2.4L27.6,2.4z M27.6,2.4"/>
	<path class="st0" d="M23,9H5.1c-1.3,0-2.3,1-2.3,2.3v9.9c0,1.3,1,2.3,2.3,2.3h3.3v5.1l4.7-5.1H23c1.3,0,2.3-1,2.3-2.3v-9.9
		C25.3,10,24.2,9,23,9z M8,17.8c-0.8,0-1.4-0.6-1.4-1.4C6.6,15.7,7.2,15,8,15c0.8,0,1.4,0.6,1.4,1.4C9.4,17.2,8.7,17.8,8,17.8z
		 M14,17.8c-0.8,0-1.4-0.6-1.4-1.4c0-0.8,0.6-1.4,1.4-1.4c0.8,0,1.4,0.6,1.4,1.4C15.5,17.2,14.8,17.8,14,17.8z M20.1,17.8
		c-0.8,0-1.4-0.6-1.4-1.4c0-0.8,0.6-1.4,1.4-1.4c0.8,0,1.4,0.6,1.4,1.4C21.5,17.2,20.9,17.8,20.1,17.8z"/>
</g>
</svg>
