<?xml version="1.0" encoding="utf-8"?>
<!-- Generator: Adobe Illustrator 22.0.1, SVG Export Plug-In . SVG Version: 6.00 Build 0)  -->
<svg version="1.1" id="Слой_1" xmlns="http://www.w3.org/2000/svg" xmlns:xlink="http://www.w3.org/1999/xlink" x="0px" y="0px"
	 viewBox="0 0 32.8 25" style="enable-background:new 0 0 32.8 25;" xml:space="preserve">
<style type="text/css">
	.st0{fill:#FFFFFF;}
</style>
<g>
	<path class="st0" d="M30.6,11.9c-0.3-0.3-6.4-7-14.1-7s-13.8,6.7-14.1,7c-0.3,0.3-0.3,0.8,0,1.1c0.3,0.3,6.4,7,14.1,7
		s13.8-6.7,14.1-7C30.8,12.7,30.8,12.3,30.6,11.9z M22.3,12.5c0,3.2-2.6,5.9-5.9,5.9s-5.9-2.6-5.9-5.9s2.6-5.9,5.9-5.9
		S22.3,9.3,22.3,12.5z"/>
	<path class="st0" d="M17.3,10.8c0-0.8,0.4-1.6,1.1-2c-0.6-0.3-1.2-0.5-1.9-0.5c-2.3,0-4.2,1.9-4.2,4.2s1.9,4.2,4.2,4.2
		c2.1,0,3.8-1.5,4.1-3.5C18.9,13.7,17.3,12.5,17.3,10.8z"/>
</g>
</svg>
