<?xml version="1.0" encoding="utf-8"?>
<!-- Generator: Adobe Illustrator 19.1.0, SVG Export Plug-In . SVG Version: 6.00 Build 0)  -->
<svg version="1.1" id="Слой_1" xmlns="http://www.w3.org/2000/svg" xmlns:xlink="http://www.w3.org/1999/xlink" x="0px" y="0px"
	 viewBox="-292 415.3 10.6 10.6" style="enable-background:new -292 415.3 10.6 10.6;" xml:space="preserve">
<g>
	<path d="M-284.4,415.3h-4.7c-1.6,0-2.9,1.3-2.9,2.9v4.7c0,1.6,1.3,2.9,2.9,2.9h4.7c1.6,0,2.9-1.3,2.9-2.9v-4.7
		C-281.4,416.6-282.7,415.3-284.4,415.3L-284.4,415.3z M-282.4,423c0,1.1-0.9,2-2,2h-4.7c-1.1,0-2-0.9-2-2v-4.7c0-1.1,0.9-2,2-2h4.7
		c1.1,0,2,0.9,2,2V423z M-282.4,423"/>
	<path d="M-286.7,417.9c-1.5,0-2.7,1.2-2.7,2.7c0,1.5,1.2,2.7,2.7,2.7c1.5,0,2.7-1.2,2.7-2.7C-284,419.1-285.2,417.9-286.7,417.9
		L-286.7,417.9z M-286.7,422.4c-1,0-1.8-0.8-1.8-1.8c0-1,0.8-1.8,1.8-1.8c1,0,1.8,0.8,1.8,1.8C-284.9,421.6-285.7,422.4-286.7,422.4
		L-286.7,422.4z M-286.7,422.4"/>
	<path d="M-283.9,417.1c-0.2,0-0.4,0.1-0.5,0.2c-0.1,0.1-0.2,0.3-0.2,0.5c0,0.2,0.1,0.4,0.2,0.5c0.1,0.1,0.3,0.2,0.5,0.2
		c0.2,0,0.4-0.1,0.5-0.2c0.1-0.1,0.2-0.3,0.2-0.5c0-0.2-0.1-0.4-0.2-0.5C-283.5,417.2-283.7,417.1-283.9,417.1L-283.9,417.1z
		 M-283.9,417.1"/>
</g>
</svg>
