<?xml version="1.0" encoding="utf-8"?>
<!-- Generator: Adobe Illustrator 19.1.0, SVG Export Plug-In . SVG Version: 6.00 Build 0)  -->
<svg version="1.1" id="Слой_1" xmlns="http://www.w3.org/2000/svg" xmlns:xlink="http://www.w3.org/1999/xlink" x="0px" y="0px"
	 viewBox="-289 416.3 15.2 8.6" style="enable-background:new -289 416.3 15.2 8.6;" xml:space="preserve">
<style type="text/css">
	.st0{clip-path:url(#SVGID_1_);fill-rule:evenodd;clip-rule:evenodd;}
</style>
<g>
	<g>
		<defs>
			<rect id="SVGID_3_" x="-289" y="416.3" width="15.1" height="8.6"/>
		</defs>
		<clipPath id="SVGID_1_">
			<use xlink:href="#SVGID_3_"  style="overflow:visible;"/>
		</clipPath>
		<path class="st0" d="M-276.1,421.7c0.5,0.5,1,0.9,1.5,1.5c0.2,0.2,0.4,0.5,0.5,0.8c0.2,0.4,0,0.8-0.3,0.8l-2.2,0
			c-0.6,0-1-0.2-1.4-0.6c-0.3-0.3-0.6-0.6-0.9-1c-0.1-0.1-0.2-0.3-0.4-0.4c-0.3-0.2-0.6-0.1-0.7,0.2c-0.2,0.3-0.2,0.7-0.2,1
			c0,0.5-0.2,0.7-0.7,0.7c-1.1,0.1-2.2-0.1-3.1-0.7c-0.9-0.5-1.5-1.2-2.1-2c-1.1-1.5-2-3.2-2.8-5c-0.2-0.4,0-0.6,0.4-0.6
			c0.7,0,1.4,0,2.1,0c0.3,0,0.5,0.2,0.6,0.4c0.4,1,0.9,1.9,1.5,2.7c0.2,0.2,0.3,0.4,0.5,0.6c0.3,0.2,0.4,0.1,0.6-0.2
			c0.1-0.2,0.1-0.4,0.1-0.6c0.1-0.7,0.1-1.3,0-2c-0.1-0.4-0.3-0.7-0.7-0.8c-0.2,0-0.2-0.1-0.1-0.2c0.2-0.2,0.3-0.3,0.7-0.3h2.5
			c0.4,0.1,0.5,0.3,0.5,0.6l0,2.8c0,0.2,0.1,0.6,0.3,0.7c0.2,0.1,0.4-0.1,0.5-0.2c0.6-0.6,1-1.4,1.4-2.1c0.2-0.3,0.3-0.7,0.5-1
			c0.1-0.3,0.3-0.4,0.6-0.4l2.4,0c0.1,0,0.1,0,0.2,0c0.4,0.1,0.5,0.2,0.4,0.6c-0.2,0.6-0.6,1.1-0.9,1.6c-0.4,0.6-0.8,1.1-1.2,1.6
			C-276.5,421-276.5,421.3-276.1,421.7L-276.1,421.7z M-276.1,421.7"/>
	</g>
</g>
</svg>
