<?xml version="1.0" encoding="utf-8"?>
<!-- Generator: Adobe Illustrator 22.0.1, SVG Export Plug-In . SVG Version: 6.00 Build 0)  -->
<svg version="1.1" id="Слой_1" xmlns="http://www.w3.org/2000/svg" xmlns:xlink="http://www.w3.org/1999/xlink" x="0px" y="0px"
	 viewBox="0 0 24.5 23.5" style="enable-background:new 0 0 24.5 23.5;" xml:space="preserve">
<style type="text/css">
	.st0{fill:#020203;}
</style>
<path class="st0" d="M20.3,0.8h-16c-1.6,0-3,1.3-3,3v16c0,1.6,1.3,3,3,3h7.9l0-7.8h-2c-0.3,0-0.5-0.2-0.5-0.5l0-2.5
	c0-0.3,0.2-0.5,0.5-0.5h2V8.9c0-2.8,1.7-4.4,4.3-4.4h2.1C18.7,4.6,19,4.8,19,5v2.1c0,0.3-0.2,0.5-0.5,0.5l-1.3,0
	c-1.4,0-1.6,0.7-1.6,1.6v2.1h3c0.3,0,0.5,0.3,0.5,0.5l-0.3,2.5c0,0.2-0.2,0.4-0.5,0.4h-2.7l0,7.8h4.7c1.6,0,3-1.3,3-3v-16
	C23.2,2.1,21.9,0.8,20.3,0.8z"/>
</svg>
