<?xml version="1.0" encoding="UTF-8"?>
<!DOCTYPE svg PUBLIC "-//W3C//DTD SVG 1.1//EN" "http://www.w3.org/Graphics/SVG/1.1/DTD/svg11.dtd">
<!-- Creator: CorelDRAW X8 -->
<svg xmlns="http://www.w3.org/2000/svg" xml:space="preserve" width="3.7258mm" height="3.7258mm" version="1.1" style="shape-rendering:geometricPrecision; text-rendering:geometricPrecision; image-rendering:optimizeQuality; fill-rule:evenodd; clip-rule:evenodd"
viewBox="0 0 20 20"
 xmlns:xlink="http://www.w3.org/1999/xlink">
 <defs>
  <style type="text/css">
   <![CDATA[
    .fil0 {fill:black;fill-rule:nonzero}
   ]]>
  </style>
 </defs>
 <g id="Слой_x0020_1">
  <metadata id="CorelCorpID_0Corel-Layer"/>
  <g id="_1879919717904">
   <path class="fil0" d="M14 0l-9 0c-3,0 -5,2 -5,5l0 9c0,3 2,6 5,6l9 0c3,0 6,-3 6,-6l0 -9c0,-3 -3,-5 -6,-5zm4 14c0,2 -2,4 -4,4l-9 0c-2,0 -3,-2 -3,-4l0 -9c0,-2 1,-3 3,-3l9 0c2,0 4,1 4,3l0 9z"/>
   <path class="fil0" d="M10 5c-3,0 -5,2 -5,5 0,3 2,5 5,5 3,0 5,-2 5,-5 0,-3 -2,-5 -5,-5zm0 8c-2,0 -3,-1 -3,-3 0,-2 1,-3 3,-3 2,0 3,1 3,3 0,2 -1,3 -3,3z"/>
   <path class="fil0" d="M15 3c0,0 0,0 -1,1 0,0 0,0 0,1 0,0 0,0 0,1 1,0 1,0 1,0 1,0 1,0 1,0 0,-1 0,-1 0,-1 0,-1 0,-1 0,-1 0,-1 0,-1 -1,-1z"/>
  </g>
 </g>
</svg>
