<?xml version="1.0" encoding="utf-8"?>
<!-- Generator: Adobe Illustrator 22.0.1, SVG Export Plug-In . SVG Version: 6.00 Build 0)  -->
<svg version="1.1" id="Слой_1" xmlns="http://www.w3.org/2000/svg" xmlns:xlink="http://www.w3.org/1999/xlink" x="0px" y="0px"
	 viewBox="0 0 26.1 25" style="enable-background:new 0 0 26.1 25;" xml:space="preserve">
<style type="text/css">
	.st0{fill:#FFFFFF;}
</style>
<path class="st0" d="M5.3,8.2h-3c-0.4,0-0.8,0.3-0.8,0.8v13.7c0,0.4,0.3,0.8,0.8,0.8h3c0.4,0,0.8-0.3,0.8-0.8V8.9
	C6.1,8.5,5.7,8.2,5.3,8.2z"/>
<path class="st0" d="M17.1,8.2L17.9,6c0.6-1.5,0.2-3.8-1.3-4.6c-0.5-0.3-1.2-0.4-1.8-0.3c-0.3,0.1-0.6,0.3-0.8,0.6
	c-0.2,0.3-0.2,0.7-0.2,1.1c-0.2,0.9-0.6,1.8-1.3,2.5c-1.2,1.2-4.9,4.5-4.9,4.5v12.2h12.7c1.7,0,2.8-1.9,2-3.4c1-0.6,1.4-2,0.8-3
	c1-0.6,1.4-2,0.8-3c1.7-1.1,1.2-3.9-0.9-4.2C22.8,8.2,17.1,8.2,17.1,8.2z"/>
</svg>
