<?xml version="1.0" encoding="UTF-8"?>
<!DOCTYPE svg PUBLIC "-//W3C//DTD SVG 1.1//EN" "http://www.w3.org/Graphics/SVG/1.1/DTD/svg11.dtd">
<!-- Creator: CorelDRAW X8 -->
<svg xmlns="http://www.w3.org/2000/svg" xml:space="preserve" width="28.9109mm" height="6.1345mm" version="1.1" style="shape-rendering:geometricPrecision; text-rendering:geometricPrecision; image-rendering:optimizeQuality; fill-rule:evenodd; clip-rule:evenodd"
viewBox="0 0 863 183"
 xmlns:xlink="http://www.w3.org/1999/xlink">
 <defs>
  <style type="text/css">
   <![CDATA[
    .fil1 {fill:#0980CD;fill-rule:nonzero}
    .fil0 {fill:#303D6E;fill-rule:nonzero}
   ]]>
  </style>
 </defs>
 <g id="Слой_x0020_1">
  <metadata id="CorelCorpID_0Corel-Layer"/>
  <g id="_1879669860832">
   <path class="fil0" d="M231 30l-19 0 0 71 19 0c15,0 23,-7 23,-21l0 -29c0,-14 -8,-21 -23,-21zm50 21l0 29c0,28 -17,46 -50,46l-40 0c-5,0 -7,-2 -7,-7l0 -107c0,-5 2,-7 7,-7l40 0c33,0 50,18 50,46z"/>
   <path class="fil0" d="M331 92c-10,0 -12,4 -12,8 0,5 2,9 11,9 7,0 12,-1 14,-1 0,0 1,0 1,-1l0 -15c-3,0 -10,0 -14,0zm2 -57c28,0 38,15 38,36l0 43c0,6 -2,8 -7,10 -6,3 -17,4 -32,4 -31,0 -39,-9 -39,-28 0,-21 12,-28 40,-28 4,0 9,1 12,1l0 -4c0,-8 -4,-13 -13,-13 -7,0 -11,3 -14,7 -3,4 -4,4 -9,3l-9 -4c-5,-2 -6,-5 -4,-9 6,-12 18,-18 37,-18z"/>
   <path class="fil0" d="M475 35c25,0 36,13 36,35l0 50c0,4 -2,6 -7,6l-13 0c-5,0 -6,-2 -6,-6l0 -49c0,-8 -5,-13 -13,-13 -4,0 -8,1 -12,2 1,3 1,7 1,10l0 50c0,4 -1,6 -6,6l-13 0c-5,0 -7,-2 -7,-6l0 -49c0,-8 -4,-13 -12,-13 -4,0 -7,1 -10,2 -1,0 -1,0 -1,1l0 59c0,4 -2,6 -6,6l-14 0c-4,0 -6,-2 -6,-6l0 -69c0,-6 1,-8 7,-10 7,-3 17,-6 33,-6 9,0 16,2 21,5 7,-3 15,-5 28,-5z"/>
   <path class="fil0" d="M605 44l0 68c0,6 -2,8 -7,10 -7,3 -18,6 -35,6 -25,0 -37,-12 -37,-35l0 -49c0,-5 2,-7 7,-7l13 0c4,0 6,2 6,7l0 48c0,9 5,13 14,13 5,0 8,0 12,-1 1,0 1,-1 1,-2l0 -58c0,-5 1,-7 6,-7l13 0c5,0 7,2 7,7z"/>
   <path class="fil1" d="M655 23l0 14 16 0c5,0 6,2 6,7l0 10c0,5 -1,6 -6,6l-16 0 0 29c0,13 5,16 16,16 5,0 6,1 6,6l0 11c0,5 -1,6 -6,6 -29,1 -41,-8 -41,-38l0 -30 -9 0c-5,0 -7,-1 -7,-6l0 -10c0,-5 2,-7 7,-7l9 0 0 -14c0,-4 1,-6 6,-6l13 0c5,0 6,2 6,6z"/>
   <path class="fil1" d="M728 55c-10,0 -15,5 -15,13l0 3 30 0 0 -3c0,-8 -5,-13 -15,-13zm0 -20c28,0 41,16 41,36l0 10c0,5 -2,9 -9,9l-47 0 0 4c0,9 5,13 15,13 8,0 13,-2 16,-6 3,-4 5,-5 10,-3l8 5c5,2 6,5 3,10 -6,10 -18,15 -37,15 -30,0 -41,-16 -41,-37l0 -18c0,-25 14,-38 41,-38z"/>
   <path class="fil1" d="M857 126l-12 0c-7,0 -9,-1 -11,-6l-9 -21c-2,-5 -5,-7 -11,-7l-6 0 0 27c0,5 -1,7 -6,7l-13 0c-5,0 -7,-2 -7,-7l0 -113c0,-4 2,-6 6,-6l14 0c5,0 6,2 6,6l0 64 5 0 19 -27c3,-5 5,-6 12,-6l11 0c7,0 8,3 5,8l-23 31c4,3 6,7 9,12l15 30c3,6 2,8 -4,8z"/>
   <path class="fil1" d="M115 88c6,-2 9,-10 4,-14l-65 -37c-5,-4 -12,-7 -14,3 0,1 0,6 1,10l0 69c-1,6 4,9 9,6l65 -37z"/>
   <path class="fil1" d="M88 139c0,0 -3,1 -7,1 -3,1 -7,1 -8,1 -4,0 -8,0 -12,-1 -34,-5 -56,-37 -50,-70 5,-34 37,-56 70,-51 34,6 56,38 51,71 -1,5 -3,10 -5,14 -2,6 -5,10 -6,11l9 4c3,-3 6,-10 6,-11 2,-5 4,-11 5,-16 7,-39 -19,-76 -58,-82 -39,-7 -75,19 -82,58 -7,39 20,75 58,82 5,1 11,1 16,1 0,0 4,-1 7,-1 6,-1 8,-2 9,-2l-3 -9z"/>
   <polygon class="fil0" points="153,146 149,143 145,141 141,139 123,128 92,110 97,137 102,165 103,169 104,174 105,180 111,172 116,166 119,162 120,164 123,168 134,183 147,173 137,158 134,154 132,152 138,150 146,148 "/>
  </g>
 </g>
</svg>
