<?xml version="1.0" encoding="UTF-8"?>
<!DOCTYPE svg PUBLIC "-//W3C//DTD SVG 1.1//EN" "http://www.w3.org/Graphics/SVG/1.1/DTD/svg11.dtd">
<!-- Creator: CorelDRAW X8 -->
<svg xmlns="http://www.w3.org/2000/svg" xml:space="preserve" width="3.164mm" height="3.2773mm" version="1.1" style="shape-rendering:geometricPrecision; text-rendering:geometricPrecision; image-rendering:optimizeQuality; fill-rule:evenodd; clip-rule:evenodd"
viewBox="0 0 28 29"
 xmlns:xlink="http://www.w3.org/1999/xlink">
 <defs>
  <style type="text/css">
   <![CDATA[
    .fil0 {fill:#112578;fill-rule:nonzero}
   ]]>
  </style>
 </defs>
 <g id="Слой_x0020_1">
  <metadata id="CorelCorpID_0Corel-Layer"/>
  <path class="fil0" d="M27 26l-6 -7c1,-2 2,-5 2,-7 0,-7 -5,-12 -11,-12 -7,0 -12,5 -12,12 0,6 5,11 12,11 2,0 4,0 6,-2l7 7c1,1 1,1 1,1 1,0 1,0 1,-1 1,0 1,-1 0,-2zm-15 -23c4,0 8,4 8,9 0,4 -4,8 -8,8 -5,0 -9,-4 -9,-8 0,-5 4,-9 9,-9z"/>
 </g>
</svg>
