<?xml version="1.0" encoding="utf-8"?>
<!-- Generator: Adobe Illustrator 19.1.0, SVG Export Plug-In . SVG Version: 6.00 Build 0)  -->
<svg version="1.1" id="Слой_1" xmlns="http://www.w3.org/2000/svg" xmlns:xlink="http://www.w3.org/1999/xlink" x="0px" y="0px"
	 viewBox="280.7 403.9 33.3 33.5" style="enable-background:new 280.7 403.9 33.3 33.5;" xml:space="preserve">
<style type="text/css">
	.st0{fill:#FFFFFF;}
</style>
<g>
	<path class="st0" d="M297.3,437.2c-9.2,0-16.6-7.4-16.6-16.6s7.4-16.6,16.6-16.6c9.2,0,16.6,7.4,16.6,16.6S306.5,437.2,297.3,437.2
		z M297.3,406c-8.1,0-14.6,6.5-14.6,14.6c0,8,6.5,14.6,14.6,14.6c8.1,0,14.6-6.5,14.6-14.6C311.9,412.5,305.4,406,297.3,406z"/>
</g>
<g>
	<path class="st0" d="M295.2,430.4l-6.6-7.8c-0.4-0.4-0.3-1.1,0.1-1.4c0.4-0.4,1.1-0.3,1.4,0.1l5,5.8l9.5-13.7
		c0.3-0.5,0.9-0.6,1.4-0.3c0.5,0.3,0.6,0.9,0.3,1.4L295.2,430.4z"/>
</g>
</svg>
