<?xml version="1.0" encoding="utf-8"?>
<!-- Generator: Adobe Illustrator 19.1.0, SVG Export Plug-In . SVG Version: 6.00 Build 0)  -->
<svg version="1.1" id="Слой_1" xmlns="http://www.w3.org/2000/svg" xmlns:xlink="http://www.w3.org/1999/xlink" x="0px" y="0px"
	 viewBox="276.9 406 41.5 30.9" style="enable-background:new 276.9 406 41.5 30.9;" xml:space="preserve">
<style type="text/css">
	.st0{fill:#FFFFFF;}
</style>
<path class="st0" d="M316.8,414.1l-6.7-6.6h-11.7v28h18.4L316.8,414.1L316.8,414.1z M318.4,413.5V437l-21.5-0.1
	c0-10.3,0-20.6,0-30.9h13.9L318.4,413.5z"/>
<path class="st0" d="M311.2,408.5v4.5h4.6L311.2,408.5L311.2,408.5z M309.7,413.7v-7c0-0.2,0.1-0.4,0.2-0.5c0.3-0.3,0.8-0.3,1.1,0
	l7.1,7c0.2,0.1,0.2,0.3,0.2,0.5c0,0.4-0.3,0.7-0.8,0.7h-7.1C310,414.4,309.7,414.1,309.7,413.7L309.7,413.7z"/>
<path class="st0" d="M283.2,426.5l3.7-8.8h1.4l3.9,8.8h-1.4l-1.1-2.7h-4l-1,2.7H283.2L283.2,426.5z M285.9,422.8h3.3l-1-2.5
	c-0.3-0.7-0.5-1.4-0.7-1.8c-0.1,0.6-0.3,1.1-0.5,1.7L285.9,422.8L285.9,422.8z"/>
<path class="st0" d="M312.6,421.9c0,1.3-0.3,2.4-1,3.3s-1.9,1.3-3.4,1.3s-2.6-0.5-3.4-1.4c-0.7-0.8-1-1.9-1-3.3v-0.6h7.5
	c-0.1-0.9-0.3-1.6-0.8-2.1s-1.3-0.8-2.2-0.8c-1.4,0-2.3,0.6-2.6,1.9l-1.2-0.3c0.2-0.8,0.7-1.5,1.4-1.9c0.7-0.4,1.5-0.6,2.4-0.6
	s1.7,0.2,2.4,0.6C312,418.7,312.7,420.5,312.6,421.9L312.6,421.9z M311.3,422.4h-6.2c0,1,0.3,1.8,0.9,2.3c0.6,0.6,1.3,0.9,2.2,0.9
	c0.9,0,1.7-0.3,2.2-0.9C310.9,424.1,311.2,423.4,311.3,422.4L311.3,422.4z"/>
<path class="st0" d="M278.5,435.5h18.4v-28h-11.7l-6.7,6.6L278.5,435.5L278.5,435.5z M284.5,406h13.9c0,10.3,0,20.6,0,30.9h-21.5
	v-23.4L284.5,406z"/>
<path class="st0" d="M284.1,408.5l-4.6,4.5h4.6V408.5L284.1,408.5z M284.8,414.4h-7.1c-0.4,0-0.8-0.3-0.8-0.7c0-0.2,0.1-0.4,0.2-0.5
	l7.1-7c0.3-0.3,0.8-0.3,1.1,0c0.2,0.1,0.2,0.3,0.2,0.5v7C285.5,413.7,285.4,414.4,284.8,414.4z"/>
</svg>
