<?xml version="1.0" encoding="utf-8"?>
<!-- Generator: Adobe Illustrator 19.1.0, SVG Export Plug-In . SVG Version: 6.00 Build 0)  -->
<svg version="1.1" id="Слой_1" xmlns="http://www.w3.org/2000/svg" xmlns:xlink="http://www.w3.org/1999/xlink" x="0px" y="0px"
	 viewBox="278.8 402.9 37 36.1" style="enable-background:new 278.8 402.9 37 36.1;" xml:space="preserve">
<style type="text/css">
	.st0{fill:none;stroke:#FFFFFF;stroke-width:2;stroke-linecap:round;stroke-miterlimit:10;}
</style>
<g id="XMLID_1_">
	<path class="st0" d="M307.9,410v-3.2c0-1.6-1.3-2.8-2.9-2.8h-21.9c-1.6,0-2.9,1.3-2.9,2.8v21.9c0,1.6,1.3,2.8,2.9,2.8h3.5H305
		c1.6,0,2.9-1.3,2.9-2.8V410z"/>
	<path class="st0" d="M314.3,412.9v21.9c0,1.6-1.3,2.8-2.9,2.8h-21.9c-1.6,0-2.9-1.3-2.9-2.8v-3.2H305c1.6,0,2.9-1.3,2.9-2.8V410
		h3.5C313,410,314.3,411.3,314.3,412.9z"/>
</g>
<path class="st0" d="M299.8,417.9l-9,5.2c-0.4,0.2-0.9-0.1-0.9-0.5v-10.3c0-0.5,0.5-0.8,0.9-0.5l9,5.2
	C300.2,417.1,300.2,417.7,299.8,417.9z"/>
</svg>
