<?xml version="1.0" encoding="iso-8859-1"?>
<!-- Generator: Adobe Illustrator 22.0.1, SVG Export Plug-In . SVG Version: 6.00 Build 0)  -->
<svg version="1.1" id="&#x421;&#x43B;&#x43E;&#x439;_1"
	 xmlns="http://www.w3.org/2000/svg" xmlns:xlink="http://www.w3.org/1999/xlink" x="0px" y="0px" viewBox="0 0 145.502 165.286"
	 style="enable-background:new 0 0 145.502 165.286;" xml:space="preserve">
<g>
	<polygon style="fill:#303D6E;" points="144.835,130.435 87.377,96.525 99.622,162.46 112.81,145.506 126.938,165.286 
		139.184,155.867 125.055,136.086 144.835,130.435 	"/>
	<path style="fill-rule:evenodd;clip-rule:evenodd;fill:#0980CD;" d="M67.611,1.619c36.772,0,66.582,29.81,66.582,66.582
		c0,13.597-4.079,26.24-11.076,36.778l-7.685-3.415c6.607-9.453,10.486-20.954,10.486-33.362c0-32.202-26.105-58.308-58.308-58.308
		c-32.202,0-58.308,26.105-58.308,58.308c0,32.203,26.105,58.308,58.308,58.308c5.597,0,11.01-0.791,16.133-2.263l2.619,7.855
		c-5.948,1.743-12.24,2.682-18.752,2.682c-36.772,0-66.582-29.81-66.582-66.582C1.029,31.429,30.839,1.619,67.611,1.619
		L67.611,1.619z"/>
	<path style="fill:#0980CD;" d="M37.319,42.771c-0.98,2.206-0.368,3.186,1.961,4.044l4.534,1.593
		c2.206,0.858,3.064,0.368,4.044-1.961c3.432-8.212,9.069-13.481,20.589-13.481c12.011,0,18.261,6.618,18.261,15.32
		c0,11.398-7.231,15.32-14.094,19.854C66.12,72.43,59.87,77.332,59.87,89.343c0,2.451,0.858,3.064,3.064,3.064h3.799
		c2.206,0,3.064-0.613,3.064-3.064c0-6.863,4.412-10.417,9.437-13.604c7.966-5.025,19.119-10.172,19.119-27.943
		c0-13.972-10.785-25.247-29.659-25.247C51.291,22.549,41.854,30.883,37.319,42.771L37.319,42.771z M65.262,100.495h-0.735
		c-4.78,0-6.25,1.593-6.25,6.251v0.98c0,4.78,1.47,6.128,6.25,6.128h0.735c4.78,0,6.25-1.471,6.25-6.128v-0.98
		C71.513,102.088,70.042,100.495,65.262,100.495L65.262,100.495z"/>
</g>
</svg>
