<?xml version="1.0" encoding="utf-8"?>
<!-- Generator: Adobe Illustrator 19.1.0, SVG Export Plug-In . SVG Version: 6.00 Build 0)  -->
<svg version="1.1" id="Слой_1" xmlns="http://www.w3.org/2000/svg" xmlns:xlink="http://www.w3.org/1999/xlink" x="0px" y="0px"
	 viewBox="0 0 15.4 27.4" style="enable-background:new 0 0 15.4 27.4;" xml:space="preserve">
<style type="text/css">
	.st0{fill:#447DC7;}
</style>
<g>
	<path class="st0" d="M14.9,2.9c0.7-0.7,0.7-1.7,0-2.4c-0.7-0.7-1.7-0.7-2.4,0l-12,12c-0.7,0.7-0.7,1.7,0,2.4c0.7,0.7,1.7,0.7,2.4,0
		L14.9,2.9L14.9,2.9z"/>
	<path class="st0" d="M14.9,24.5c0.7,0.7,0.7,1.7,0,2.4c-0.7,0.7-1.7,0.7-2.4,0l-12-12c-0.7-0.7-0.7-1.7,0-2.4
		c0.7-0.7,1.7-0.7,2.4,0L14.9,24.5L14.9,24.5z"/>
</g>
</svg>
